<?xml version="1.0" encoding="UTF-8"?>
<svg version="1.1" xmlns="http://www.w3.org/2000/svg" width="935" height="202">
<path d="M0 0 C0.73239395 0.00960754 1.4647879 0.01921509 2.21937561 0.02911377 C4.62177796 0.06189362 7.02398629 0.10230468 9.42626953 0.14282227 C11.09920585 0.16714397 12.77214919 0.19098648 14.44509888 0.21437073 C18.83455451 0.27700771 23.22388468 0.3461314 27.61322021 0.41662598 C32.09772052 0.48749426 36.58230932 0.55220031 41.06689453 0.61743164 C49.85605508 0.74618097 58.64509261 0.88178619 67.43408203 1.02172852 C67.13720703 2.95532227 67.13720703 2.95532227 66.43408203 5.02172852 C65.36158203 5.37235352 64.28908203 5.72297852 63.18408203 6.08422852 C58.8942293 7.51143649 55.81215124 9.93201263 52.43945312 12.85498047 C51.87282141 13.3409863 51.30618969 13.82699213 50.72238731 14.32772541 C44.40358372 19.81462559 38.49237697 25.69229342 32.59814453 31.62719727 C31.42316802 32.80337101 30.24781594 33.97916967 29.07211304 35.15461731 C26.6338222 37.59445539 24.19887341 40.03756028 21.76660156 42.48339844 C18.66879164 45.59828097 15.56435518 48.70645557 12.45762062 51.8124342 C10.03966307 54.23066505 7.62433029 56.65150333 5.20985031 59.07320595 C4.06630208 60.21990526 2.9221746 61.36602726 1.77742386 62.51152611 C-3.71624246 68.01272791 -9.16723978 73.5108938 -14.20347595 79.44186401 C-16.20232614 81.75969657 -18.38142835 83.88000215 -20.56591797 86.02172852 C-21.42830078 86.93051758 -22.29068359 87.83930664 -23.17919922 88.77563477 C-30.50175822 96.39491107 -37.82652283 102.45819386 -48.86898804 103.26223755 C-50.06367706 103.25779633 -51.25836609 103.2533551 -52.48925781 103.2487793 C-53.48543625 103.24921738 -53.48543625 103.24921738 -54.5017395 103.24966431 C-56.67691534 103.24828113 -58.85174015 103.23276839 -61.02685547 103.21704102 C-62.54285495 103.21330727 -64.05885686 103.21046201 -65.57485962 103.20846558 C-69.55001579 103.20085754 -73.52502403 103.18123362 -77.50012207 103.15905762 C-81.56239827 103.13853799 -85.62469855 103.12945082 -89.68701172 103.11938477 C-97.64671475 103.09798483 -105.60629792 103.06388337 -113.56591797 103.02172852 C-111.68071672 98.94306792 -108.94831365 95.99881484 -105.87841797 92.77172852 C-104.77736819 91.59798933 -103.67710232 90.42351427 -102.57763672 89.24829102 C-102.05089355 88.68658203 -101.52415039 88.12487305 -100.98144531 87.54614258 C-99.34247505 85.78109768 -97.75805809 83.97573009 -96.19091797 82.14672852 C-92.1629232 77.48377891 -87.9148146 73.02516995 -83.69946289 68.5324707 C-80.08041966 64.66787906 -76.51700545 60.7728733 -73.09326172 56.73266602 C-71.01118716 54.40031651 -68.77675887 52.23256941 -66.56591797 50.02172852 C-64.08956106 47.43441541 -61.63964257 44.82267656 -59.19091797 42.20922852 C-58.55669922 41.53569336 -57.92248047 40.8621582 -57.26904297 40.16821289 C-53.50453285 36.15401587 -49.83271617 32.0748364 -46.22265625 27.92138672 C-21.58648945 -0.32706802 -21.58648945 -0.32706802 0 0 Z " fill="#682DDB" transform="translate(123.56591796875,25.978271484375)"/>
<path d="M0 0 C1.28095047 0.00007553 2.56190094 0.00015106 3.88166809 0.00022888 C5.26966389 0.00533474 6.65765929 0.01055072 8.0456543 0.01586914 C9.47340343 0.01773564 10.9011532 0.01915845 12.3289032 0.02015686 C16.0755085 0.02396375 19.82207465 0.03377832 23.56866455 0.04486084 C27.39627554 0.05511437 31.22389289 0.05966291 35.05151367 0.06469727 C42.55348459 0.07540232 50.05542332 0.09245666 57.55737305 0.11352539 C57.55737305 4.52400991 57.41586403 4.75733731 54.54956055 7.69555664 C53.89914795 8.37303955 53.24873535 9.05052246 52.57861328 9.74853516 C51.870354 10.46710693 51.16209473 11.18567871 50.43237305 11.92602539 C48.96194226 13.45170215 47.49189767 14.97775122 46.0222168 16.50415039 C44.90242432 17.65753906 44.90242432 17.65753906 43.76000977 18.83422852 C40.46476381 22.24416159 37.22677796 25.7061617 33.99487305 29.17602539 C33.12245972 30.10958862 33.12245972 30.10958862 32.23242188 31.06201172 C28.76254016 34.78459626 25.37951484 38.56722516 22.0612793 42.42602539 C19.90490306 44.84564756 17.5886845 47.09038796 15.2800293 49.36352539 C13.60935595 51.06071736 12.04736599 52.80812006 10.49487305 54.61352539 C7.03351719 58.62714252 3.43032149 62.49649135 -0.19262695 66.36352539 C-4.60619421 71.07660564 -9.01299726 75.7948367 -13.38012695 80.55102539 C-14.26442383 81.51137695 -15.1487207 82.47172852 -16.05981445 83.46118164 C-18.11880057 85.75306947 -20.06269866 88.09888687 -22.00512695 90.48852539 C-28.52896103 98.03416481 -37.72665624 101.9582481 -47.44262695 103.11352539 C-49.87893179 103.19635229 -52.31717433 103.23139607 -54.75488281 103.22705078 C-55.44840851 103.22719681 -56.1419342 103.22734283 -56.85647583 103.22749329 C-59.12350718 103.22680279 -61.3904539 103.21905131 -63.6574707 103.21118164 C-65.23930313 103.20931439 -66.82113614 103.20789194 -68.40296936 103.20689392 C-72.54738996 103.20309294 -76.691775 103.19328353 -80.83618164 103.18218994 C-85.07283039 103.17192359 -89.30948495 103.16738515 -93.54614258 103.16235352 C-101.84498694 103.1516589 -110.14380251 103.13461182 -118.44262695 103.11352539 C-118.44262695 102.12352539 -118.44262695 101.13352539 -118.44262695 100.11352539 C-116.67700195 98.89477539 -116.67700195 98.89477539 -114.19262695 97.61352539 C-107.3854646 93.72097903 -102.01291576 88.54769812 -96.44262695 83.11352539 C-95.91282227 82.59886719 -95.38301758 82.08420898 -94.8371582 81.55395508 C-89.98139431 76.81870348 -85.15598287 72.08640048 -80.81762695 66.86352539 C-80.03387695 65.95602539 -79.25012695 65.04852539 -78.44262695 64.11352539 C-77.78262695 64.11352539 -77.12262695 64.11352539 -76.44262695 64.11352539 C-76.17869141 63.52740479 -75.91475586 62.94128418 -75.64282227 62.33740234 C-74.39373857 60.02293868 -73.05501362 58.42670995 -71.23950195 56.53149414 C-70.59625977 55.85473633 -69.95301758 55.17797852 -69.2902832 54.48071289 C-68.59805664 53.76141602 -67.90583008 53.04211914 -67.19262695 52.30102539 C-65.72876188 50.76357284 -64.26522599 49.2258068 -62.80200195 47.68774414 C-62.0665918 46.91736816 -61.33118164 46.14699219 -60.57348633 45.35327148 C-57.50586843 42.12889859 -54.47339334 38.87248962 -51.44262695 35.61352539 C-50.30612262 34.39587731 -49.16940081 33.17843218 -48.0324707 31.96118164 C-46.14999089 29.94502839 -44.2694936 27.92711532 -42.39233398 25.90600586 C-40.26665823 23.61782709 -38.13620005 21.33417692 -36.00512695 19.05102539 C-35.02962891 17.9972168 -35.02962891 17.9972168 -34.03442383 16.92211914 C-23.1589634 5.29778323 -23.1589634 5.29778323 -16.31762695 2.80102539 C-15.51067383 2.49551758 -14.7037207 2.19000977 -13.87231445 1.87524414 C-9.18731685 0.4064748 -4.90759589 -0.00967968 0 0 Z " fill="#2C81FA" transform="translate(163.442626953125,79.886474609375)"/>
<path d="M0 0 C1.66864105 0.02620876 3.33729718 0.05147233 5.00596619 0.07583618 C9.37083221 0.14207968 13.73537589 0.22105796 18.09997559 0.30279541 C22.56457264 0.38411609 27.02935719 0.45324592 31.49414062 0.5234375 C40.23460257 0.6626269 48.97476156 0.81528606 57.71484375 0.9765625 C57.41796875 2.91015625 57.41796875 2.91015625 56.71484375 4.9765625 C55.64234375 5.3271875 54.56984375 5.6778125 53.46484375 6.0390625 C39.52900242 10.76743092 27.46645549 26.99043471 17.40234375 37.1640625 C15.77586323 38.80060004 14.14891319 40.43667109 12.52148438 42.07226562 C8.58051836 46.03501272 4.64534904 50.00344094 0.71484375 53.9765625 C0.21984375 51.9965625 0.21984375 51.9965625 -0.28515625 49.9765625 C-3.73256181 48.89298839 -6.7414568 48.95236832 -10.3359375 49.1328125 C-11.50962891 49.18566406 -12.68332031 49.23851562 -13.89257812 49.29296875 C-16.35094023 49.41478532 -18.80927398 49.53717563 -21.26757812 49.66015625 C-27.12638979 49.92311331 -32.51037406 49.97652478 -38.28515625 48.9765625 C-38.61515625 49.3065625 -38.94515625 49.6365625 -39.28515625 49.9765625 C-40.93384654 50.16860279 -42.58963698 50.3003722 -44.24609375 50.40625 C-45.27605469 50.47972656 -46.30601563 50.55320313 -47.3671875 50.62890625 C-49.52309558 50.77467939 -51.67934584 50.9154969 -53.8359375 51.05078125 C-60.14854023 51.51115648 -65.88342524 52.47424418 -71.93212891 54.35986328 C-74.28515625 54.9765625 -74.28515625 54.9765625 -78.28515625 54.9765625 C-77.70861215 51.57643064 -76.67517964 50.04985765 -74.16015625 47.7265625 C-71.65948976 45.33219964 -69.29386996 42.91331684 -67.03515625 40.2890625 C-63.59643846 36.30292551 -60.04824245 32.42318483 -56.48242188 28.55126953 C-53.47211147 25.2797765 -50.49447782 21.98193668 -47.53515625 18.6640625 C-46.11953499 17.1006153 -44.7029533 15.53803688 -43.28515625 13.9765625 C-42.70378906 13.3165625 -42.12242188 12.6565625 -41.5234375 11.9765625 C-30.22404062 -0.24469659 -15.49279568 -0.31507869 0 0 Z " fill="#995DF3" transform="translate(133.28515625,26.0234375)"/>
<path d="M0 0 C1.42345988 0.00373644 2.84692236 0.00658043 4.27038574 0.00857544 C7.99234284 0.01616225 11.71414047 0.03576731 15.43603516 0.0579834 C19.24379317 0.07854936 23.05157729 0.0876 26.859375 0.09765625 C34.3125722 0.11901861 41.76563864 0.15309365 49.21875 0.1953125 C49.21875 4.60579702 49.07724098 4.83912442 46.2109375 7.77734375 C45.5605249 8.45482666 44.9101123 9.13230957 44.23999023 9.83032227 C43.53173096 10.54889404 42.82347168 11.26746582 42.09375 12.0078125 C40.62331921 13.53348926 39.15327462 15.05953833 37.68359375 16.5859375 C36.93706543 17.35486328 36.19053711 18.12378906 35.42138672 18.91601562 C32.12613664 22.32595297 28.88834566 25.78812131 25.65625 29.2578125 C25.07609131 29.8780127 24.49593262 30.49821289 23.89819336 31.13720703 C20.91754866 34.33233336 17.99845685 37.56282088 15.15625 40.8828125 C12.74938925 43.68674418 10.22034987 46.01233078 7.21875 48.1953125 C7.21875 47.2053125 7.21875 46.2153125 7.21875 45.1953125 C6.105 45.40027344 4.99125 45.60523438 3.84375 45.81640625 C-36.92049056 53.10248546 -36.92049056 53.10248546 -45.78125 47.1953125 C-46.44125 47.8553125 -47.10125 48.5153125 -47.78125 49.1953125 C-50.51559962 49.5016984 -53.16404821 49.7066461 -55.90625 49.8203125 C-56.66035156 49.85898438 -57.41445312 49.89765625 -58.19140625 49.9375 C-60.05428184 50.03182281 -61.91773255 50.11465912 -63.78125 50.1953125 C-64.00689731 45.24778624 -62.83051674 43.15111799 -59.78125 39.1953125 C-56.3726882 35.51765371 -52.66182767 32.35392223 -48.78125 29.1953125 C-48.12125 29.8553125 -47.46125 30.5153125 -46.78125 31.1953125 C-46.78125 29.8753125 -46.78125 28.5553125 -46.78125 27.1953125 C-47.11125 26.8653125 -47.44125 26.5353125 -47.78125 26.1953125 C-49.76125 27.1853125 -49.76125 27.1853125 -51.78125 28.1953125 C-43.12042519 15.57525349 -32.64665959 4.37266815 -17.3865509 0.62461853 C-11.64799242 -0.32099115 -5.79965359 -0.04496226 0 0 Z " fill="#58A7FB" transform="translate(171.78125,79.8046875)"/>
<path d="M0 0 C9.31409948 5.34436605 13.66808286 13.00424859 17 23 C17.14961464 25.90885382 17.23118311 28.77793858 17.25 31.6875 C17.270625 32.46544922 17.29125 33.24339844 17.3125 34.04492188 C17.37849343 43.93568668 13.65218021 50.81564537 7 58 C-1.72987324 66.03148338 -10.28802493 67.73873625 -21.86328125 67.34375 C-29.92125543 66.83340556 -36.2997407 63.69385302 -42.17578125 58.19921875 C-50.82732386 47.76920057 -52.08642233 35.98851283 -51 23 C-49.29654222 14.38009318 -45.02017579 7.78489631 -38.015625 2.50390625 C-36.05450628 1.22309809 -34.07059437 0.09327383 -32 -1 C-30.9275 -1.598125 -29.855 -2.19625 -28.75 -2.8125 C-19.01516568 -5.89519754 -9.19642432 -4.06165792 0 0 Z M-32.3125 16.25 C-36.78150139 23.53281707 -38.43348113 30.73268715 -36.49609375 39.203125 C-34.533504 45.07967945 -31.45758728 49.24458052 -26.375 52.875 C-20.22435146 54.92521618 -13.74025124 55.09512912 -7.6875 52.5625 C-2.65468573 49.67329181 0.89325612 44.46779749 2.64453125 38.98046875 C4.04169488 31.19627141 3.00080984 23.64727188 -1.32421875 16.94921875 C-4.41464318 13.0314366 -6.94851362 10.87429572 -12 10 C-20.19054134 9.13130622 -26.31678073 10.4163272 -32.3125 16.25 Z " fill="#3584F6" transform="translate(798,69)"/>
<path d="M0 0 C6.91700775 4.58627688 12.11807845 10.12071422 13.8125 18.4375 C14.60772717 26.62171299 14.2819685 33.87858487 9.1953125 40.5625 C7.45867815 42.58981564 5.67767611 44.52820144 3.8125 46.4375 C3.29429687 47.16324219 2.77609375 47.88898438 2.2421875 48.63671875 C-1.70453587 51.5618626 -5.84726367 51.05536572 -10.625 51 C-12.03749023 51.03577148 -12.03749023 51.03577148 -13.47851562 51.07226562 C-20.25173721 51.05792571 -20.25173721 51.05792571 -22.92626953 49.28466797 C-24.28515625 47.90234375 -24.28515625 47.90234375 -26.1875 45.4375 C-26.5175 45.4375 -26.8475 45.4375 -27.1875 45.4375 C-27.18226318 46.06841553 -27.17702637 46.69933105 -27.17163086 47.34936523 C-27.15092174 50.19123347 -27.13785934 53.03308588 -27.125 55.875 C-27.11662109 56.86822266 -27.10824219 57.86144531 -27.09960938 58.88476562 C-27.09638672 59.82900391 -27.09316406 60.77324219 -27.08984375 61.74609375 C-27.08460693 62.62064209 -27.07937012 63.49519043 -27.07397461 64.39624023 C-27.1875 66.4375 -27.1875 66.4375 -28.1875 67.4375 C-32.4775 67.4375 -36.7675 67.4375 -41.1875 67.4375 C-41.1875 44.9975 -41.1875 22.5575 -41.1875 -0.5625 C-36.8975 -0.5625 -32.6075 -0.5625 -28.1875 -0.5625 C-27.8575 0.7575 -27.5275 2.0775 -27.1875 3.4375 C-26.341875 2.81875 -25.49625 2.2 -24.625 1.5625 C-16.87885049 -3.54127141 -8.08900931 -4.55462236 0 0 Z M-23.1875 12.4375 C-26.56630988 16.06972062 -27.89862682 19.55611487 -28.2890625 24.41796875 C-28.05938767 28.98496444 -26.06790731 32.39201632 -23.1875 35.8125 C-19.7865496 38.5757722 -16.54146896 38.72334232 -12.25 38.65234375 C-7.94308092 38.20370635 -5.1039699 36.54358436 -2.375 33.25 C-0.17058745 28.02902291 0.44508717 23.57366455 -1.25 18.1875 C-3.32822012 13.3572989 -6.72697975 11.43500821 -11.5 9.5 C-15.77125659 9.40066845 -19.39433768 10.49483369 -23.1875 12.4375 Z " fill="#272D40" transform="translate(558.1875,85.5625)"/>
<path d="M0 0 C0.969375 0.7425 1.93875 1.485 2.9375 2.25 C2.51597656 2.80429688 2.09445312 3.35859375 1.66015625 3.9296875 C1.11230469 4.65414062 0.56445312 5.37859375 0 6.125 C-0.54527344 6.84429687 -1.09054687 7.56359375 -1.65234375 8.3046875 C-3.10214624 10.19357079 -3.10214624 10.19357079 -4.0625 12.25 C-6.66809028 11.76748328 -8.33202729 11.08565409 -10.625 9.6875 C-13.02154831 7.99600749 -13.02154831 7.99600749 -16.0625 8.25 C-16.0625 7.59 -16.0625 6.93 -16.0625 6.25 C-21.58927733 6.05607799 -25.81864911 6.5020497 -31.0625 8.25 C-31.0625 10.56 -31.0625 12.87 -31.0625 15.25 C-24.8284413 18.68509357 -18.43121746 20.83645323 -11.6484375 22.90625 C-5.16849008 25.33446559 -1.06063784 28.76683954 2.9375 34.25 C4.75883247 39.92149097 4.82997395 45.9464034 2.4375 51.4375 C-0.08129387 55.95333758 -3.83091593 58.44822852 -8.0625 61.25 C-9.4013913 62.24254615 -10.73630493 63.24055242 -12.0625 64.25 C-12.0625 63.59 -12.0625 62.93 -12.0625 62.25 C-13.0525 62.745 -13.0525 62.745 -14.0625 63.25 C-27.26826762 64.13328051 -36.70877973 62.85194982 -47.56640625 54.8125 C-49.3478924 52.95194006 -49.8745469 51.81530588 -50.0625 49.25 C-47.8125 46.6875 -47.8125 46.6875 -45.0625 44.25 C-44.464375 43.651875 -43.86625 43.05375 -43.25 42.4375 C-42.6621875 41.8496875 -42.6621875 41.8496875 -42.0625 41.25 C-39.56879873 42.40093905 -37.45374515 43.67348164 -35.1875 45.25 C-28.64867297 49.4348493 -22.69460394 50.23555403 -15.125 48.625 C-12.78066773 47.3541554 -12.78066773 47.3541554 -12 44.375 C-11.77594577 41.27792924 -11.77594577 41.27792924 -13.42578125 39.26171875 C-18.0024106 35.76992006 -23.60485302 34.69724061 -29.08984375 33.15820312 C-36.51984191 30.89528642 -42.59842538 27.59146482 -46.5390625 20.6484375 C-47.80053555 14.86825501 -48.22888012 8.66208095 -45.375 3.3125 C-34.02349191 -11.72057829 -14.06890539 -9.88473991 0 0 Z " fill="#292E40" transform="translate(505.0625,72.75)"/>
<path d="M0 0 C2.9705435 1.82309826 5.46116213 3.82484274 7.9921875 6.22265625 C5.93211091 9.82779028 3.6408734 13.02596637 0.9921875 16.22265625 C-1.90546117 15.61897944 -3.99551134 14.69728788 -6.5078125 13.16015625 C-11.73567707 10.45269343 -17.24837549 10.48886131 -23.0078125 11.22265625 C-23.9978125 11.88265625 -24.9878125 12.54265625 -26.0078125 13.22265625 C-26.59126726 16.18012117 -26.59126726 16.18012117 -26.0078125 19.22265625 C-22.6229939 22.67744526 -18.28334207 23.41931635 -13.7578125 24.59765625 C-4.48347094 27.18245322 2.32549654 30.15191458 7.9921875 38.22265625 C10.12562575 43.14597529 9.50047149 49.3172928 7.9296875 54.34765625 C5.33671089 60.5440182 0.15559287 64.09651247 -5.92529297 66.60473633 C-10.01185577 67.81729089 -14.20983628 67.80343079 -18.4453125 67.91015625 C-19.36763672 67.94431641 -20.28996094 67.97847656 -21.24023438 68.01367188 C-23.49597201 68.09548619 -25.75135369 68.16484747 -28.0078125 68.22265625 C-28.5028125 67.23265625 -28.5028125 67.23265625 -29.0078125 66.22265625 C-30.54829754 65.44806208 -32.11588539 64.72689339 -33.6953125 64.03515625 C-38.86998796 61.55546959 -41.60124318 58.79463086 -45.0078125 54.22265625 C-42.3678125 51.25265625 -39.7278125 48.28265625 -37.0078125 45.22265625 C-33.0078125 47.22265625 -33.0078125 47.22265625 -30.1328125 49.22265625 C-24.35756467 52.91881486 -18.7887877 54.06103137 -12.0078125 53.22265625 C-9.79433124 52.47575863 -9.79433124 52.47575863 -8.0078125 51.22265625 C-6.83670801 48.36305565 -6.83670801 48.36305565 -7.0078125 45.22265625 C-10.37064678 40.3047541 -15.96852707 39.34694188 -21.3828125 37.72265625 C-35.50406535 33.45117231 -35.50406535 33.45117231 -40.3828125 27.16015625 C-43.14246555 21.75680196 -42.91482185 15.71854659 -41.41796875 9.94921875 C-38.98518889 4.09709393 -34.47336332 1.13157741 -29.0078125 -1.77734375 C-20.38441009 -4.65181122 -8.16338474 -3.94045734 0 0 Z " fill="#282D3F" transform="translate(297.0078125,68.77734375)"/>
<path d="M0 0 C4.62 0 9.24 0 14 0 C14.33 12.54 14.66 25.08 15 38 C18.96 33.71 22.92 29.42 27 25 C32 20 32 20 34.03637695 19.43237305 C35.00256958 19.47164917 35.00256958 19.47164917 35.98828125 19.51171875 C36.69404297 19.52783203 37.39980469 19.54394531 38.12695312 19.56054688 C38.84818359 19.60244141 39.56941406 19.64433594 40.3125 19.6875 C41.05306641 19.71005859 41.79363281 19.73261719 42.55664062 19.75585938 C44.37197357 19.8144185 46.18625681 19.90409114 48 20 C46.74302326 23.77093022 44.85485402 25.24070595 42 28 C40.03661524 30.08056201 38.11293704 32.19683287 36.1875 34.3125 C35.68541016 34.86228516 35.18332031 35.41207031 34.66601562 35.97851562 C33.44296032 37.31805239 32.22132992 38.65888992 31 40 C32.3981073 45.11085891 34.63739225 48.69649369 37.75 52.875 C38.19520996 53.48633789 38.64041992 54.09767578 39.09912109 54.72753906 C42.01348109 58.71694589 44.98360585 62.66425053 48.0390625 66.546875 C49 68 49 68 49 70 C37.49492121 71.92196212 37.49492121 71.92196212 32 70 C27.72069514 66.25320414 25.2934391 60.92277244 22.98876953 55.80932617 C21.90852165 53.83260591 20.65593629 52.51292096 19 51 C15.84664106 53.44700653 15.05628099 54.66087096 14.390625 58.671875 C14.32467436 60.03045815 14.27827746 61.39011102 14.25 62.75 C14.22035156 63.44738281 14.19070313 64.14476562 14.16015625 64.86328125 C14.08981542 66.57490813 14.04260054 68.28745815 14 70 C9.38 70 4.76 70 0 70 C0 46.9 0 23.8 0 0 Z " fill="#262B3E" transform="translate(674,65)"/>
<path d="M0 0 C4.59648572 3.61851004 7.50426049 8.16396614 8.26010132 14.01266479 C8.34449693 16.20102989 8.33809125 18.36910333 8.29296875 20.55859375 C8.28872391 21.34774673 8.28447906 22.13689972 8.28010559 22.94996643 C8.26344452 25.44617261 8.22581779 27.94154192 8.1875 30.4375 C8.17243683 32.13996222 8.15875129 33.84243721 8.14648438 35.54492188 C8.1135825 39.6969322 8.06188951 43.8483247 8 48 C5.75006641 48.02707139 3.50003905 48.04642829 1.25 48.0625 C-0.00296875 48.07410156 -1.2559375 48.08570313 -2.546875 48.09765625 C-5.28536501 48.02021027 -7.41880293 47.82780815 -10 47 C-10.33 47.66 -10.66 48.32 -11 49 C-16.75009187 50.12650863 -22.26534618 50.17633924 -28 49 C-28.99 49.495 -28.99 49.495 -30 50 C-39.81541387 39.64675524 -39.81541387 39.64675524 -40.08984375 32.73828125 C-39.76643018 27.72122463 -38.85444826 24.45912023 -35 21 C-25.93398921 15.18592786 -16.43462397 15.86974811 -6 16 C-7.68807908 11.76915097 -7.68807908 11.76915097 -11 9 C-17.3087759 8.2846927 -21.86031024 8.83671262 -27.2109375 12.3203125 C-29 13 -29 13 -31.08203125 12.26953125 C-33.69885426 10.53741826 -35.28015649 8.61161422 -37 6 C-36 3 -36 3 -33.234375 1.4296875 C-32.08453125 0.91664062 -30.9346875 0.40359375 -29.75 -0.125 C-28.61046875 -0.64320312 -27.4709375 -1.16140625 -26.296875 -1.6953125 C-16.88853533 -5.41851801 -8.86065883 -4.67476138 0 0 Z M-25 29 C-25.66666667 32 -25.66666667 32 -25 35 C-23.35377524 37.2229277 -22.42778881 37.91299211 -19.6953125 38.46875 C-13.8606579 38.56620074 -13.8606579 38.56620074 -8.9375 35.5625 C-8.298125 34.716875 -7.65875 33.87125 -7 33 C-6.67 32.67 -6.34 32.34 -6 32 C-5.95919217 30.00041636 -5.95745644 27.99954746 -6 26 C-8.22855574 25.9185778 -10.45797655 25.86061921 -12.6875 25.8125 C-13.92886719 25.77769531 -15.17023437 25.74289063 -16.44921875 25.70703125 C-20.22106035 26.0182393 -22.07396802 26.63603066 -25 29 Z " fill="#282D40" transform="translate(617,87)"/>
<path d="M0 0 C4.3388091 3.9739547 7.32486951 8.32316888 9 14 C9 17.96 9 21.92 9 26 C-3.21 26 -15.42 26 -28 26 C-25.17392516 32.13419693 -25.17392516 32.13419693 -20 35 C-14.5748746 36.72617626 -10.00640528 35.40307453 -5 33 C-3.26569613 31.4809585 -3.26569613 31.4809585 -2 30 C1.81684226 31.55500981 4.19195732 34.03595495 7 37 C5.5039904 40.80802445 3.33936849 42.69424557 0 45 C-1.3242287 45.36784131 -2.65613912 45.71202981 -4 46 C-4.495 46.99 -4.495 46.99 -5 48 C-26.29571306 49.0439075 -26.29571306 49.0439075 -34.82421875 41.35546875 C-41.62499043 34.06069428 -42.58657892 27.38804555 -42.3359375 17.59375 C-41.57177176 9.41895375 -37.71078104 4.87144896 -31.484375 -0.296875 C-22.08042729 -6.74360645 -9.30090469 -6.75131459 0 0 Z M-25.375 9.875 C-27.30929497 12.11332946 -27.30929497 12.11332946 -28 16 C-20.41 16 -12.82 16 -5 16 C-6.07726659 10.45741725 -6.07726659 10.45741725 -10 7 C-15.6784521 5.23337046 -20.69378768 6.17930607 -25.375 9.875 Z " fill="#282E41" transform="translate(416,88)"/>
<path d="M0 0 C5.61265017 4.4005798 8.57277078 9.46170203 9.76953125 16.4609375 C10.5598487 23.47014635 10.5598487 23.47014635 9.0078125 26.57421875 C-2.8721875 26.57421875 -14.7521875 26.57421875 -26.9921875 26.57421875 C-23.31618106 33.7285351 -23.31618106 33.7285351 -17.2109375 36.26953125 C-11.77209725 37.01641424 -7.36723473 35.52833315 -2.9296875 32.44921875 C-1.970625 31.52109375 -1.970625 31.52109375 -0.9921875 30.57421875 C2.82465476 32.12922856 5.19976982 34.6101737 8.0078125 37.57421875 C6.56147506 41.17833529 4.81644582 42.68824443 1.5703125 44.76171875 C0.78785156 45.27089844 0.00539063 45.78007812 -0.80078125 46.3046875 C-6.89818861 49.83705362 -14.17937938 49.08378329 -20.9921875 48.57421875 C-24.33447183 47.67830087 -27.0681439 46.40653428 -29.9921875 44.57421875 C-30.8996875 44.01734375 -31.8071875 43.46046875 -32.7421875 42.88671875 C-38.50721385 36.96155278 -41.04789104 30.06365861 -41.3046875 21.88671875 C-41.19673214 15.29162743 -39.5825669 9.50630778 -35.15625 4.49609375 C-24.9794675 -4.78388416 -12.13378423 -7.58905143 0 0 Z M-24.8046875 11.01171875 C-26.32866023 12.80400501 -26.32866023 12.80400501 -26.9921875 16.57421875 C-19.4021875 16.57421875 -11.8121875 16.57421875 -3.9921875 16.57421875 C-5.02273705 10.98783774 -5.02273705 10.98783774 -8.9921875 7.57421875 C-15.62465955 5.96958842 -19.33168466 6.67106132 -24.8046875 11.01171875 Z " fill="#3383F4" transform="translate(916.9921875,87.42578125)"/>
<path d="M0 0 C5.60180092 5.60180092 7.21654534 11.09671777 7.25224304 18.95126343 C7.24505753 19.65570587 7.23787201 20.36014832 7.23046875 21.0859375 C7.23001053 21.82832672 7.22955231 22.57071594 7.2290802 23.33560181 C7.22608005 24.8902549 7.21826163 26.44490559 7.20581055 27.99951172 C7.18739128 30.38910429 7.18530228 32.77831212 7.18554688 35.16796875 C7.18063692 36.68229504 7.17481089 38.1966187 7.16796875 39.7109375 C7.16685593 40.42752533 7.1657431 41.14411316 7.16459656 41.88241577 C7.11610577 46.88389423 7.11610577 46.88389423 6 48 C3.85692104 48.12537741 1.70921114 48.17574364 -0.4375 48.1875 C-1.61183594 48.20167969 -2.78617188 48.21585938 -3.99609375 48.23046875 C-7 48 -7 48 -9 46 C-9.17510386 43.34708243 -9.23155483 40.80013826 -9.1953125 38.1484375 C-9.1924826 37.37440582 -9.18965271 36.60037415 -9.18673706 35.80288696 C-9.17552754 33.32676843 -9.15042203 30.8510095 -9.125 28.375 C-9.11497118 26.69792188 -9.10584516 25.02083811 -9.09765625 23.34375 C-9.07558574 19.22902777 -9.04105102 15.11457489 -9 11 C-13.92826423 9.71916466 -18.80417327 8.81763176 -23.4375 11.3125 C-26.61169009 14.7406253 -26.20887677 18.88899023 -26.31640625 23.29296875 C-26.33718735 23.99899734 -26.35796844 24.70502594 -26.37937927 25.43244934 C-26.44467491 27.68403551 -26.50366647 29.93573662 -26.5625 32.1875 C-26.60570425 33.7155066 -26.64931916 35.24350164 -26.69335938 36.77148438 C-26.80033574 40.51420562 -26.90165922 44.2570423 -27 48 C-29.14576637 48.02685938 -31.29162645 48.04633088 -33.4375 48.0625 C-34.63246094 48.07410156 -35.82742188 48.08570313 -37.05859375 48.09765625 C-40 48 -40 48 -41 47 C-41.09831146 45.50129952 -41.12798456 43.99801461 -41.12939453 42.49609375 C-41.13254669 41.53840088 -41.13569885 40.58070801 -41.13894653 39.59399414 C-41.1369223 38.55235107 -41.13489807 37.51070801 -41.1328125 36.4375 C-41.13376923 35.37587646 -41.13472595 34.31425293 -41.13571167 33.22045898 C-41.13639364 30.97086528 -41.13453819 28.72126963 -41.13037109 26.47167969 C-41.1250231 23.01492929 -41.13031554 19.55830883 -41.13671875 16.1015625 C-41.13605797 13.92187471 -41.13477682 11.742187 -41.1328125 9.5625 C-41.13483673 8.52085693 -41.13686096 7.47921387 -41.13894653 6.40600586 C-41.13579437 5.44831299 -41.13264221 4.49062012 -41.12939453 3.50390625 C-41.12859894 2.65642822 -41.12780334 1.8089502 -41.12698364 0.93579102 C-41 -1 -41 -1 -40 -2 C-38.02486333 -2.15126231 -36.04321865 -2.22173766 -34.0625 -2.25 C-32.98097656 -2.27578125 -31.89945313 -2.3015625 -30.78515625 -2.328125 C-29.86605469 -2.21984375 -28.94695313 -2.1115625 -28 -2 C-27.01 -0.515 -27.01 -0.515 -26 1 C-25.46890625 0.72285156 -24.9378125 0.44570312 -24.390625 0.16015625 C-23.68421875 -0.20207031 -22.9778125 -0.56429687 -22.25 -0.9375 C-21.55390625 -1.29714844 -20.8578125 -1.65679687 -20.140625 -2.02734375 C-13.25302256 -5.15692953 -6.27624423 -4.04469073 0 0 Z " fill="#3482F3" transform="translate(863,87)"/>
<path d="M0 0 C3.35286458 0.03255208 6.70572917 0.06510417 10.05859375 0.09765625 C10.05859375 4.71765625 10.05859375 9.33765625 10.05859375 14.09765625 C14.34859375 14.09765625 18.63859375 14.09765625 23.05859375 14.09765625 C23.05859375 17.72765625 23.05859375 21.35765625 23.05859375 25.09765625 C18.76859375 25.09765625 14.47859375 25.09765625 10.05859375 25.09765625 C10.38859375 34.00765625 10.71859375 42.91765625 11.05859375 52.09765625 C15.23524036 52.09765625 18.15004632 52.01731447 22.05859375 51.09765625 C22.64462644 52.67243128 23.20166572 54.2580183 23.74609375 55.84765625 C24.05933594 56.729375 24.37257813 57.61109375 24.6953125 58.51953125 C25.05859375 61.09765625 25.05859375 61.09765625 24.0625 63.3984375 C20.40428634 66.50043154 16.09461975 65.55946633 11.51953125 65.41796875 C5.89982531 64.89786053 2.6663194 63.78999904 -1.31640625 59.59765625 C-3.96659901 55.52043663 -4.06062345 52.4446565 -4.0390625 47.6796875 C-4.03583984 46.42607422 -4.03261719 45.17246094 -4.02929688 43.88085938 C-4.02091797 42.57052734 -4.01253906 41.26019531 -4.00390625 39.91015625 C-3.99888942 38.57487144 -3.99432684 37.23958484 -3.99023438 35.90429688 C-3.9784332 32.63537152 -3.96196922 29.36653634 -3.94140625 26.09765625 C-5.64296875 26.12859375 -5.64296875 26.12859375 -7.37890625 26.16015625 C-10.94140625 26.09765625 -10.94140625 26.09765625 -11.94140625 25.09765625 C-12.03964562 23.43336574 -12.07114256 21.76483694 -12.06640625 20.09765625 C-12.06898438 19.19015625 -12.0715625 18.28265625 -12.07421875 17.34765625 C-11.94140625 15.09765625 -11.94140625 15.09765625 -10.94140625 14.09765625 C-8.60843192 14.05672688 -6.274354 14.05523902 -3.94140625 14.09765625 C-3.95300781 13.17082031 -3.96460938 12.24398437 -3.9765625 11.2890625 C-3.98558594 10.09152344 -3.99460937 8.89398438 -4.00390625 7.66015625 C-4.01550781 6.46519531 -4.02710938 5.27023438 -4.0390625 4.0390625 C-3.90927257 0.12978993 -3.90927257 0.12978993 0 0 Z " fill="#262C3F" transform="translate(345.94140625,70.90234375)"/>
<path d="M0 0 C1.17949219 0.11085938 2.35898437 0.22171875 3.57421875 0.3359375 C4.47785156 0.43132812 5.38148438 0.52671875 6.3125 0.625 C6.6425 2.275 6.9725 3.925 7.3125 5.625 C8.240625 4.820625 9.16875 4.01625 10.125 3.1875 C13.4396733 0.31478314 16.13305104 -0.50908933 20.5 -0.4375 C22.3871875 -0.4065625 22.3871875 -0.4065625 24.3125 -0.375 C25.37921952 2.82515856 25.26095472 4.51044294 24.875 7.8125 C24.77316406 8.71355469 24.67132812 9.61460938 24.56640625 10.54296875 C24.48261719 11.23003906 24.39882813 11.91710937 24.3125 12.625 C23.49265625 12.72296875 22.6728125 12.8209375 21.828125 12.921875 C20.75046875 13.07140625 19.6728125 13.2209375 18.5625 13.375 C17.49515625 13.51421875 16.4278125 13.6534375 15.328125 13.796875 C11.85981141 14.74931345 10.52603502 15.83222217 8.3125 18.625 C7.19066292 21.99051123 7.10449032 24.71560232 6.99609375 28.26171875 C6.95419922 29.56044922 6.91230469 30.85917969 6.86914062 32.19726562 C6.82933013 33.56900761 6.78961784 34.94075244 6.75 36.3125 C6.70679165 37.69597645 6.66317661 39.07944027 6.61914062 40.46289062 C6.51292035 43.85013714 6.41219312 47.23755509 6.3125 50.625 C1.6925 50.625 -2.9275 50.625 -7.6875 50.625 C-7.6875 34.785 -7.6875 18.945 -7.6875 2.625 C-8.3475 2.295 -9.0075 1.965 -9.6875 1.625 C-5.94784036 -0.86810643 -4.39679359 -0.4353261 0 0 Z " fill="#292E41" transform="translate(642.6875,84.375)"/>
<path d="M0 0 C4.62 0 9.24 0 14 0 C14 16.5 14 33 14 50 C7.565 50.495 7.565 50.495 1 51 C0 50 0 50 -0.12025452 47.98155212 C-0.11803391 47.09552811 -0.11581329 46.20950409 -0.11352539 45.29663086 C-0.11344986 44.29566879 -0.11337433 43.29470673 -0.11329651 42.26341248 C-0.10813522 41.1748848 -0.10297394 40.08635712 -0.09765625 38.96484375 C-0.0962413 37.85645645 -0.09482635 36.74806915 -0.09336853 35.60609436 C-0.08775033 32.04986931 -0.07519475 28.49370617 -0.0625 24.9375 C-0.05748734 22.53320403 -0.05292403 20.12890708 -0.04882812 17.72460938 C-0.03777499 11.81638223 -0.02049816 5.90820163 0 0 Z " fill="#272D40" transform="translate(314,85)"/>
<path d="M0 0 C3.63 0 7.26 0 11 0 C13.1875 2.5 13.1875 2.5 14 5 C13.34 5 12.68 5 12 5 C12 5.62648438 12 6.25296875 12 6.8984375 C12 19.93229167 12 32.96614583 12 46 C8.04 46 4.08 46 0 46 C0 30.82 0 15.64 0 0 Z " fill="#3085FC" transform="translate(823,87)"/>
<path d="M0 0 C0.61875 0.86625 0.61875 0.86625 1.25 1.75 C4.65278731 6.12501225 7.10982068 8.67372576 12.7734375 9.8828125 C16.8109266 10.09531193 20.43678916 8.83431564 24 7 C25.72505476 5.47442477 25.72505476 5.47442477 27 4 C30.81684226 5.55500981 33.19195732 8.03595495 36 11 C34.55366256 14.60411654 32.80863332 16.11402568 29.5625 18.1875 C28.78003906 18.69667969 27.99757813 19.20585937 27.19140625 19.73046875 C21.09399889 23.26283487 13.81280812 22.50956454 7 22 C1.66182354 20.56907214 -3.07966348 17.92033652 -7 14 C-8.3125 11.25 -8.3125 11.25 -9 9 C-8.01 9.33 -7.02 9.66 -6 10 C-6 10.99 -6 11.98 -6 13 C-5.01 13 -4.02 13 -3 13 C-2.67 12.34 -2.34 11.68 -2 11 C-1.01 11.33 -0.02 11.66 1 12 C1.86358623 10.21858253 1.86358623 10.21858253 2 8 C0.10413616 5.85410577 0.10413616 5.85410577 -2 4 C-2 3.34 -2 2.68 -2 2 C-1.34 2 -0.68 2 0 2 C0 1.34 0 0.68 0 0 Z " fill="#4089ED" transform="translate(889,114)"/>
<path d="M0 0 C0.73239395 0.00960754 1.4647879 0.01921509 2.21937561 0.02911377 C4.62177796 0.06189362 7.02398629 0.10230468 9.42626953 0.14282227 C11.09920585 0.16714397 12.77214919 0.19098648 14.44509888 0.21437073 C18.83455451 0.27700771 23.22388468 0.3461314 27.61322021 0.41662598 C32.09772052 0.48749426 36.58230932 0.55220031 41.06689453 0.61743164 C49.85605508 0.74618097 58.64509261 0.88178619 67.43408203 1.02172852 C67.13720703 2.95532227 67.13720703 2.95532227 66.43408203 5.02172852 C65.36158203 5.37235352 64.28908203 5.72297852 63.18408203 6.08422852 C58.94057013 7.50420354 55.87548939 9.86575652 52.53173828 12.75610352 C51.97025589 13.23674759 51.4087735 13.71739166 50.83027649 14.21260071 C43.93118581 20.20688285 37.53394021 26.70448078 31.12158203 33.20922852 C29.88052385 34.46035416 28.63898946 35.71100763 27.39697266 36.96118164 C24.40385258 39.97597639 21.41715232 42.99699076 18.43408203 46.02172852 C17.93908203 44.04172852 17.93908203 44.04172852 17.43408203 42.02172852 C18.42408203 41.69172852 19.41408203 41.36172852 20.43408203 41.02172852 C21.45689721 38.9245298 21.45689721 38.9245298 22.12158203 36.45922852 C22.49863281 35.21979492 22.49863281 35.21979492 22.88330078 33.95532227 C23.06505859 33.31723633 23.24681641 32.67915039 23.43408203 32.02172852 C24.75408203 32.35172852 26.07408203 32.68172852 27.43408203 33.02172852 C28.44935832 30.99117594 29.01646507 29.24901897 29.43408203 27.02172852 C28.93908203 26.03172852 28.93908203 26.03172852 28.43408203 25.02172852 C29.75408203 24.69172852 31.07408203 24.36172852 32.43408203 24.02172852 C32.43408203 23.36172852 32.43408203 22.70172852 32.43408203 22.02172852 C34.08408203 22.35172852 35.73408203 22.68172852 37.43408203 23.02172852 C37.76408203 21.04172852 38.09408203 19.06172852 38.43408203 17.02172852 C37.77408203 17.02172852 37.11408203 17.02172852 36.43408203 17.02172852 C36.43408203 16.36172852 36.43408203 15.70172852 36.43408203 15.02172852 C37.75408203 14.69172852 39.07408203 14.36172852 40.43408203 14.02172852 C40.43408203 14.68172852 40.43408203 15.34172852 40.43408203 16.02172852 C43.35188047 14.91497738 44.32328527 14.21100631 45.93408203 11.45922852 C47.43408203 9.02172852 47.43408203 9.02172852 49.49658203 8.20922852 C51.43408203 8.02172852 51.43408203 8.02172852 53.43408203 8.02172852 C53.76408203 7.36172852 54.09408203 6.70172852 54.43408203 6.02172852 C55.42408203 5.69172852 56.41408203 5.36172852 57.43408203 5.02172852 C57.43408203 4.36172852 57.43408203 3.70172852 57.43408203 3.02172852 C56.76352783 3.18471436 56.09297363 3.3477002 55.40209961 3.515625 C51.86962005 4.11798003 48.529867 4.13366391 44.94580078 4.11938477 C44.24260208 4.11796982 43.53940338 4.11655487 42.81489563 4.11509705 C40.5837466 4.1095296 38.35270039 4.09698326 36.12158203 4.08422852 C34.60270328 4.0792093 33.08382294 4.07464713 31.56494141 4.07055664 C27.85462191 4.05957088 24.14436202 4.04232886 20.43408203 4.02172852 C20.43408203 3.69172852 20.43408203 3.36172852 20.43408203 3.02172852 C15.93588094 2.89670368 11.43864054 2.80673181 6.93920898 2.74707031 C5.41363882 2.72216108 3.88818501 2.68821995 2.36303711 2.64453125 C-9.41716596 2.31590727 -18.36466024 3.46696908 -27.75341797 11.33422852 C-28.68154297 12.22110352 -29.60966797 13.10797852 -30.56591797 14.02172852 C-31.22591797 13.69172852 -31.88591797 13.36172852 -32.56591797 13.02172852 C-22.85115104 3.35389283 -13.70329247 -0.20762564 0 0 Z " fill="#A572EB" transform="translate(123.56591796875,25.978271484375)"/>
<path d="M0 0 C0.66 0 1.32 0 2 0 C1.96519531 0.90363281 1.93039063 1.80726562 1.89453125 2.73828125 C1.86746094 3.91777344 1.84039062 5.09726562 1.8125 6.3125 C1.77769531 7.48425781 1.74289063 8.65601563 1.70703125 9.86328125 C1.75346362 12.92471654 1.75346362 12.92471654 3.1875 14.875 C5.55927219 16.34713446 7.4126881 16.50731741 10.1875 16.6875 C11.08855469 16.75324219 11.98960937 16.81898437 12.91796875 16.88671875 C13.60503906 16.92410156 14.29210937 16.96148437 15 17 C15 18.32 15 19.64 15 21 C14.24074219 21.02578125 13.48148438 21.0515625 12.69921875 21.078125 C11.70535156 21.13484375 10.71148437 21.1915625 9.6875 21.25 C8.70136719 21.29640625 7.71523437 21.3428125 6.69921875 21.390625 C3.92375885 21.76472333 3.92375885 21.76472333 2.25 23.75 C0.96800719 26.05758707 0.09086332 28.22958545 -0.6875 30.75 C-0.93886719 31.54921875 -1.19023437 32.3484375 -1.44921875 33.171875 C-1.63097656 33.77515625 -1.81273437 34.3784375 -2 35 C-2.66 34.67 -3.32 34.34 -4 34 C-4.56310682 31.75651093 -4.89225193 29.51231184 -5.2421875 27.2265625 C-6.23590478 24.30687772 -7.32168995 23.48743516 -10 22 C-12.57873609 21.43015552 -12.57873609 21.43015552 -15.25 21.3125 C-16.14203125 21.24675781 -17.0340625 21.18101563 -17.953125 21.11328125 C-18.62859375 21.07589844 -19.3040625 21.03851563 -20 21 C-20 20.01 -20 19.02 -20 18 C-16.37 17.67 -12.74 17.34 -9 17 C-10.40374551 14.5267341 -11.66939168 12.33060832 -13.6875 10.3125 C-14.120625 9.879375 -14.55375 9.44625 -15 9 C-15 8.34 -15 7.68 -15 7 C-11.2089881 8.44950455 -7.6125362 10.15172566 -4 12 C-3.79503906 11.38511719 -3.59007812 10.77023438 -3.37890625 10.13671875 C-2.25260417 6.7578125 -1.12630208 3.37890625 0 0 Z " fill="#8663E6" transform="translate(221,20)"/>
<path d="M0 0 C1.5 1.375 1.5 1.375 3 3 C3 3.66 3 4.32 3 5 C3.66 5 4.32 5 5 5 C5 6.32 5 7.64 5 9 C5.99 9.33 6.98 9.66 8 10 C11.87319885 26.25360231 11.87319885 26.25360231 9 32 C8.34 32 7.68 32 7 32 C7.33 33.65 7.66 35.3 8 37 C7.34 36.67 6.68 36.34 6 36 C5.375 33.9375 5.375 33.9375 5 32 C4.05125 32.185625 3.1025 32.37125 2.125 32.5625 C-1 33 -1 33 -3 32 C-2.83242188 31.38511719 -2.66484375 30.77023438 -2.4921875 30.13671875 C-2.28851562 29.32847656 -2.08484375 28.52023438 -1.875 27.6875 C-1.66617188 26.88699219 -1.45734375 26.08648437 -1.2421875 25.26171875 C-0.72572666 22.71792767 -0.72572666 22.71792767 -3 20 C-3.125 16.8125 -3.125 16.8125 -3 14 C-3.66 14 -4.32 14 -5 14 C-5 12.35 -5 10.7 -5 9 C-5.66 9 -6.32 9 -7 9 C-7 7.68 -7 6.36 -7 5 C-6.01 5 -5.02 5 -4 5 C-1.79857668 2.5609294 -1.79857668 2.5609294 0 0 Z " fill="#2E7EF9" transform="translate(804,76)"/>
<path d="M0 0 C0 3 0 3 -1.25341797 4.56225586 C-1.82721191 5.10760986 -2.40100586 5.65296387 -2.9921875 6.21484375 C-3.61480469 6.81876953 -4.23742188 7.42269531 -4.87890625 8.04492188 C-5.53761719 8.66947266 -6.19632813 9.29402344 -6.875 9.9375 C-8.16866868 11.17096825 -9.45790515 12.40910547 -10.7421875 13.65234375 C-11.3182373 14.19882568 -11.89428711 14.74530762 -12.48779297 15.30834961 C-14.09477055 17.10601633 -14.99709802 18.81827762 -16 21 C-19.2391598 25.77799818 -22.80844326 30.02339488 -27 34 C-27.9075 34.928125 -28.815 35.85625 -29.75 36.8125 C-32 39 -32 39 -33 39 C-33.33 41.64 -33.66 44.28 -34 47 C-14.2 47 5.6 47 26 47 C26 46.34 26 45.68 26 45 C28.64 44.67 31.28 44.34 34 44 C33 46 33 46 29.42211914 47.60668945 C22.51829014 49.76573379 15.39695734 49.37137665 8.24609375 49.29296875 C6.7343844 49.28736328 5.22266954 49.28309768 3.71095276 49.28010559 C-0.23958777 49.26873155 -4.18978967 49.23933001 -8.14019775 49.20599365 C-12.1826113 49.17513087 -16.22508035 49.16156586 -20.26757812 49.14648438 C-28.17853963 49.11445185 -36.08922752 49.06334747 -44 49 C-42.11479875 44.9213394 -39.38239569 41.97708632 -36.3125 38.75 C-35.21145022 37.57626081 -34.11118435 36.40178575 -33.01171875 35.2265625 C-32.48497559 34.66485352 -31.95823242 34.10314453 -31.41552734 33.52441406 C-29.77655708 31.75936917 -28.19214012 29.95400158 -26.625 28.125 C-22.59942389 23.46485031 -18.35496383 19.00767479 -14.14013672 14.51953125 C-10.40527353 10.5340669 -6.74795996 6.50401418 -3.234375 2.3203125 C-2 1 -2 1 0 0 Z " fill="#5C3AB3" transform="translate(54,80)"/>
<path d="M0 0 C-0.66 0 -1.32 0 -2 0 C-2 1.98 -2 3.96 -2 6 C-0.68 6.33 0.64 6.66 2 7 C1.67 8.32 1.34 9.64 1 11 C0.31292969 11.08636719 -0.37414062 11.17273438 -1.08203125 11.26171875 C-2.43361328 11.47248047 -2.43361328 11.47248047 -3.8125 11.6875 C-4.70582031 11.81511719 -5.59914063 11.94273438 -6.51953125 12.07421875 C-9.92375129 13.34477017 -10.45692829 14.73875625 -12 18 C-12.50194005 21.575624 -12.50194005 21.575624 -12.51171875 25.48828125 C-12.52966995 26.19147995 -12.54762115 26.89467865 -12.56611633 27.6191864 C-12.6200048 29.85023117 -12.65404412 32.0810647 -12.6875 34.3125 C-12.72069224 35.83140947 -12.75518367 37.35029114 -12.79101562 38.86914062 C-12.87571695 42.57922416 -12.94263074 46.2893817 -13 50 C-15.14576637 50.02685938 -17.29162645 50.04633088 -19.4375 50.0625 C-20.63246094 50.07410156 -21.82742188 50.08570313 -23.05859375 50.09765625 C-26 50 -26 50 -27 49 C-27.09831146 47.50129952 -27.12798456 45.99801461 -27.12939453 44.49609375 C-27.13254669 43.53840088 -27.13569885 42.58070801 -27.13894653 41.59399414 C-27.1369223 40.55235107 -27.13489807 39.51070801 -27.1328125 38.4375 C-27.13376923 37.37587646 -27.13472595 36.31425293 -27.13571167 35.22045898 C-27.13639364 32.97086528 -27.13453819 30.72126963 -27.13037109 28.47167969 C-27.1250231 25.01492929 -27.13031554 21.55830883 -27.13671875 18.1015625 C-27.13605797 15.92187471 -27.13477682 13.742187 -27.1328125 11.5625 C-27.13483673 10.52085693 -27.13686096 9.47921387 -27.13894653 8.40600586 C-27.13579437 7.44831299 -27.13264221 6.49062012 -27.12939453 5.50390625 C-27.12859894 4.65642822 -27.12780334 3.8089502 -27.12698364 2.93579102 C-27 1 -27 1 -26 0 C-24.02486333 -0.15126231 -22.04321865 -0.22173766 -20.0625 -0.25 C-18.98097656 -0.27578125 -17.89945313 -0.3015625 -16.78515625 -0.328125 C-15.86605469 -0.21984375 -14.94695313 -0.1115625 -14 0 C-13.34 0.99 -12.68 1.98 -12 3 C-11.20335937 2.54947266 -11.20335937 2.54947266 -10.390625 2.08984375 C-9.68421875 1.70957031 -8.9778125 1.32929687 -8.25 0.9375 C-7.55390625 0.55464844 -6.8578125 0.17179687 -6.140625 -0.22265625 C-3.63859372 -1.1312406 -2.4667645 -0.88336837 0 0 Z M-26 2 C-26 17.18 -26 32.36 -26 48 C-22.04 48 -18.08 48 -14 48 C-14 47.1121582 -14 46.22431641 -14 45.30957031 C-14 32.53971354 -14 19.76985677 -14 7 C-13.34 6.67 -12.68 6.34 -12 6 C-12.99 4.68 -13.98 3.36 -15 2 C-18.63 2 -22.26 2 -26 2 Z " fill="#3681EF" transform="translate(849,85)"/>
<path d="M0 0 C7.6673788 3.4258501 13.8429506 8.58942852 17.12109375 16.39453125 C16.79109375 17.05453125 16.46109375 17.71453125 16.12109375 18.39453125 C15.46109375 18.06453125 14.80109375 17.73453125 14.12109375 17.39453125 C14.12109375 16.07453125 14.12109375 14.75453125 14.12109375 13.39453125 C13.46109375 13.39453125 12.80109375 13.39453125 12.12109375 13.39453125 C11.46109375 12.07453125 10.80109375 10.75453125 10.12109375 9.39453125 C9.33734375 10.19890625 8.55359375 11.00328125 7.74609375 11.83203125 C5.12109375 14.39453125 5.12109375 14.39453125 3.12109375 15.39453125 C2.79109375 16.05453125 2.46109375 16.71453125 2.12109375 17.39453125 C2.78109375 17.39453125 3.44109375 17.39453125 4.12109375 17.39453125 C4.12109375 19.04453125 4.12109375 20.69453125 4.12109375 22.39453125 C3.56421875 21.65203125 3.00734375 20.90953125 2.43359375 20.14453125 C-0.84385832 16.24702068 -3.778659 13.28267775 -8.87890625 12.39453125 C-11.12797777 12.3266245 -13.3789223 12.30953141 -15.62890625 12.33203125 C-17.38460937 12.34556641 -17.38460937 12.34556641 -19.17578125 12.359375 C-20.0678125 12.37097656 -20.95984375 12.38257812 -21.87890625 12.39453125 C-18.66021452 8.68846663 -15.57095476 8.39447602 -10.87890625 7.39453125 C-10.87890625 6.07453125 -10.87890625 4.75453125 -10.87890625 3.39453125 C-7.87890625 4.39453125 -7.87890625 4.39453125 -6.62890625 6.33203125 C-6.38140625 7.01265625 -6.13390625 7.69328125 -5.87890625 8.39453125 C-6.20890625 9.05453125 -6.53890625 9.71453125 -6.87890625 10.39453125 C-6.21890625 10.72453125 -5.55890625 11.05453125 -4.87890625 11.39453125 C-4.87890625 10.07453125 -4.87890625 8.75453125 -4.87890625 7.39453125 C-2.87890625 5.14453125 -2.87890625 5.14453125 -0.87890625 3.39453125 C-5.11128712 1.37715126 -9.13558632 0.94442153 -13.75390625 0.70703125 C-14.43582031 0.65998047 -15.11773438 0.61292969 -15.8203125 0.56445312 C-20.33030701 0.30244392 -24.42784779 0.62169734 -28.87890625 1.39453125 C-19.66870736 -4.74560135 -10.24878227 -3.48187921 0 0 Z " fill="#3E85EA" transform="translate(794.87890625,67.60546875)"/>
<path d="M0 0 C0.33 0.66 0.66 1.32 1 2 C1.66 2 2.32 2 3 2 C3 2.99 3 3.98 3 5 C4.485 5.495 4.485 5.495 6 6 C5.34 6 4.68 6 4 6 C4 6.99 4 7.98 4 9 C3.01 9 2.02 9 1 9 C1 9.66 1 10.32 1 11 C0.01 10.67 -0.98 10.34 -2 10 C-1.34 8.68 -0.68 7.36 0 6 C-1.98 6 -3.96 6 -6 6 C-6.08226668 9.04386724 -5.97608217 11.07175348 -5 14 C-9.62 14 -14.24 14 -19 14 C-19 13.34 -19 12.68 -19 12 C-20.11375 11.9175 -21.2275 11.835 -22.375 11.75 C-26 11 -26 11 -27.4375 8.9375 C-27.623125 8.298125 -27.80875 7.65875 -28 7 C-22.66577039 4.15507754 -18.66530156 3.79238911 -12.65625 3.94921875 C-6.45589744 4.10413496 -6.45589744 4.10413496 -1.0625 1.4375 C-0.5365625 0.7259375 -0.5365625 0.7259375 0 0 Z " fill="#3185F9" transform="translate(915,121)"/>
<path d="M0 0 C3.66900829 2.63211465 4.84009531 4.08854326 5.625 8.5625 C5 12 5 12 2.875 14.4375 C-0.51598543 16.28042686 -2.19847951 16.63358675 -6 16 C-8.875 14.5 -8.875 14.5 -11 12 C-11.71730941 9.1770404 -11.71730941 6.8229596 -11 4 C-7.75032314 0.17685075 -4.94151119 -0.92653335 0 0 Z " fill="#2C3043" transform="translate(324,64)"/>
<path d="M0 0 C1.485 0.99 1.485 0.99 3 2 C2.67 2.99 2.34 3.98 2 5 C1.01 5 0.02 5 -1 5 C-1.03665771 5.68860107 -1.07331543 6.37720215 -1.11108398 7.08666992 C-2.40319337 11.32142447 -5.08669143 13.58392264 -8.22265625 16.61328125 C-8.84273056 17.22769577 -9.46280487 17.84211029 -10.10166931 18.47514343 C-12.07940583 20.43053458 -14.07060817 22.37154064 -16.0625 24.3125 C-17.40781348 25.63774625 -18.7522257 26.96390809 -20.09570312 28.29101562 C-23.38678128 31.53805073 -26.69000432 34.77225596 -30 38 C-30.33 36.68 -30.66 35.36 -31 34 C-29.515 33.505 -29.515 33.505 -28 33 C-26.97718482 30.90280128 -26.97718482 30.90280128 -26.3125 28.4375 C-26.06113281 27.61121094 -25.80976563 26.78492187 -25.55078125 25.93359375 C-25.36902344 25.29550781 -25.18726563 24.65742187 -25 24 C-23.68 24.33 -22.36 24.66 -21 25 C-19.98472371 22.96944742 -19.41761696 21.22729045 -19 19 C-19.33 18.34 -19.66 17.68 -20 17 C-18.68 16.67 -17.36 16.34 -16 16 C-16 15.34 -16 14.68 -16 14 C-13.525 14.495 -13.525 14.495 -11 15 C-10.67 13.02 -10.34 11.04 -10 9 C-10.66 9 -11.32 9 -12 9 C-12 8.34 -12 7.68 -12 7 C-10.68 6.67 -9.36 6.34 -8 6 C-8 6.66 -8 7.32 -8 8 C-4.15350168 6.54098339 -2.91761624 4.5612873 -1 1 C-0.67 0.67 -0.34 0.34 0 0 Z " fill="#AA72F6" transform="translate(172,34)"/>
<path d="M0 0 C0 0.99 0 1.98 0 3 C-1.33333333 4.33333333 -2.66666667 5.66666667 -4 7 C-6.26207287 10.78274889 -6.26207287 10.78274889 -7 15 C-12.47619048 20 -12.47619048 20 -15 20 C-14.67 21.32 -14.34 22.64 -14 24 C-14.78375 24.2475 -15.5675 24.495 -16.375 24.75 C-19.44548487 26.21213565 -19.6449201 27.01882422 -21 30 C-21.66 30.433125 -22.32 30.86625 -23 31.3125 C-25.8800285 33.74252405 -26.18750898 36.411498 -27 40 C-29.64 40.33 -32.28 40.66 -35 41 C-34.4234559 37.59986814 -33.39002339 36.07329515 -30.875 33.75 C-28.37433351 31.35563714 -26.00871371 28.93675434 -23.75 26.3125 C-20.77033036 22.85848833 -17.71408447 19.48103582 -14.625 16.125 C-9.71094171 10.78451867 -4.84305257 5.40508583 0 0 Z " fill="#8359D1" transform="translate(90,40)"/>
<path d="M0 0 C0 0.66 0 1.32 0 2 C9.41446473 1.89232526 18.82885274 1.7796572 28.24318123 1.66066074 C32.61489549 1.6055585 36.98661657 1.55215929 41.35839844 1.50268555 C45.57947268 1.45485408 49.8004692 1.40250539 54.02145004 1.34705925 C55.62971937 1.32672052 57.23800993 1.30799388 58.84631729 1.29092598 C61.1035146 1.26669314 63.36056752 1.2366659 65.61767578 1.20532227 C66.90118927 1.18977798 68.18470276 1.1742337 69.5071106 1.15821838 C72.75475161 1.01110908 75.81071189 0.61203583 79 0 C73.77751427 5.22248573 64.17883524 4.21512078 57.22825813 4.23228264 C54.98282412 4.22643912 52.73757201 4.21106571 50.4921875 4.1953125 C48.91464417 4.19157488 47.3370985 4.18873146 45.759552 4.18673706 C41.63978484 4.17915947 37.52016231 4.15956262 33.40045166 4.1373291 C29.18365433 4.11674295 24.96683327 4.10770824 20.75 4.09765625 C12.49993418 4.07631022 4.24998516 4.0422467 -4 4 C-4 3.01 -4 2.02 -4 1 C-2 0 -2 0 0 0 Z " fill="#4275D4" transform="translate(49,179)"/>
<path d="M0 0 C-0.51129726 4.33457979 -1.82905699 6.36066538 -4.8125 9.5 C-6.01519531 10.78197266 -6.01519531 10.78197266 -7.2421875 12.08984375 C-7.90105957 12.78182861 -7.90105957 12.78182861 -8.57324219 13.48779297 C-10.13409319 15.14212409 -11.66618898 16.82021925 -13.1953125 18.50390625 C-14.27591397 19.6902205 -15.35664177 20.87641969 -16.4375 22.0625 C-16.95739502 22.63484375 -17.47729004 23.2071875 -18.01293945 23.796875 C-21.77243755 27.88621878 -21.77243755 27.88621878 -24 29 C-24.33 28.01 -24.66 27.02 -25 26 C-24.01 26 -23.02 26 -22 26 C-22 25.01 -22 24.02 -22 23 C-21.38125 22.814375 -20.7625 22.62875 -20.125 22.4375 C-16.96713434 20.30129676 -16.94551506 17.59295723 -16 14 C-14.5625 12.0625 -14.5625 12.0625 -13 11 C-12.01 11 -11.02 11 -10 11 C-10.33 8.69 -10.66 6.38 -11 4 C-13.31 3.67 -15.62 3.34 -18 3 C-12.70325348 -0.31046657 -6.06067649 -0.15151691 0 0 Z " fill="#3E90F6" transform="translate(179,125)"/>
<path d="M0 0 C0.33 0.66 0.66 1.32 1 2 C2.32 2 3.64 2 5 2 C5.33 1.34 5.66 0.68 6 0 C7.125 1.75 7.125 1.75 8 4 C7.125 6.25 7.125 6.25 6 8 C5.01 8 4.02 8 3 8 C2.67 8.99 2.34 9.98 2 11 C-1.96 11 -5.92 11 -10 11 C-10 10.34 -10 9.68 -10 9 C-10.99 8.67 -11.98 8.34 -13 8 C-12.34 7.401875 -11.68 6.80375 -11 6.1875 C-8.6626154 4.12498166 -8.6626154 4.12498166 -9 1 C-4.545 0.505 -4.545 0.505 0 0 Z " fill="#3384FC" transform="translate(784,124)"/>
<path d="M0 0 C0.33 0.33 0.66 0.66 1 1 C2.68183948 1.23287008 4.3712416 1.41264166 6.0625 1.5625 C7.44115234 1.68818359 7.44115234 1.68818359 8.84765625 1.81640625 C9.91306641 1.90728516 9.91306641 1.90728516 11 2 C11 3.32 11 4.64 11 6 C10.25234375 6.02578125 9.5046875 6.0515625 8.734375 6.078125 C2.66532637 6.22529849 2.66532637 6.22529849 -2.4375 9.0625 C-2.953125 9.701875 -3.46875 10.34125 -4 11 C-5.32 11 -6.64 11 -8 11 C-8.99 7.04 -9.98 3.08 -11 -1 C-3.52173913 -2.43812709 -3.52173913 -2.43812709 0 0 Z " fill="#8B6FE1" transform="translate(225,35)"/>
<path d="M0 0 C1.65322266 0.01740234 1.65322266 0.01740234 3.33984375 0.03515625 C4.99693359 0.04869141 4.99693359 0.04869141 6.6875 0.0625 C7.54214844 0.07410156 8.39679687 0.08570312 9.27734375 0.09765625 C9.60734375 1.74765625 9.93734375 3.39765625 10.27734375 5.09765625 C9.61734375 4.43765625 8.95734375 3.77765625 8.27734375 3.09765625 C4.64734375 2.76765625 1.01734375 2.43765625 -2.72265625 2.09765625 C-2.72265625 17.27765625 -2.72265625 32.45765625 -2.72265625 48.09765625 C1.23734375 48.09765625 5.19734375 48.09765625 9.27734375 48.09765625 C9.27734375 38.19765625 9.27734375 28.29765625 9.27734375 18.09765625 C9.60734375 18.09765625 9.93734375 18.09765625 10.27734375 18.09765625 C10.27734375 28.65765625 10.27734375 39.21765625 10.27734375 50.09765625 C5.98734375 50.09765625 1.69734375 50.09765625 -2.72265625 50.09765625 C-4.32317289 48.49713961 -3.84997097 46.80919503 -3.85205078 44.59375 C-3.85520294 43.63605713 -3.8583551 42.67836426 -3.86160278 41.69165039 C-3.85957855 40.65000732 -3.85755432 39.60836426 -3.85546875 38.53515625 C-3.85642548 37.47353271 -3.8573822 36.41190918 -3.85836792 35.31811523 C-3.85904989 33.06852153 -3.85719444 30.81892588 -3.85302734 28.56933594 C-3.84767935 25.11258554 -3.85297179 21.65596508 -3.859375 18.19921875 C-3.85871422 16.01953096 -3.85743307 13.83984325 -3.85546875 11.66015625 C-3.85749298 10.61851318 -3.85951721 9.57687012 -3.86160278 8.50366211 C-3.85845062 7.54596924 -3.85529846 6.58827637 -3.85205078 5.6015625 C-3.85125519 4.75408447 -3.85045959 3.90660645 -3.84963989 3.03344727 C-3.64695903 -0.0563034 -3.12614071 0.11212843 0 0 Z " fill="#427FD0" transform="translate(825.72265625,84.90234375)"/>
<path d="M0 0 C2.52469299 1.2623465 2.65658776 2.19870477 3.75 4.75 C5.81194615 9.08318758 8.21157036 11.11749919 12 14 C12.99 15.485 12.99 15.485 14 17 C17.3 16.67 20.6 16.34 24 16 C23.67 16.99 23.34 17.98 23 19 C23.66 19.33 24.32 19.66 25 20 C25 20.66 25 21.32 25 22 C29.62 22 34.24 22 39 22 C39 22.33 39 22.66 39 23 C27.3597554 23.51991167 18.20095808 23.40208622 8.6875 15.8125 C4.7922739 12.15430592 1.99904186 7.95916155 0 3 C0 2.01 0 1.02 0 0 Z M22 8 C29.425 8.99 29.425 8.99 37 10 C33.99382731 13.00617269 31.17618402 12.59585316 27 13 C26.67 13.99 26.34 14.98 26 16 C25.34 16 24.68 16 24 16 C24 14.35 24 12.7 24 11 C23.34 10.67 22.68 10.34 22 10 C22 9.34 22 8.68 22 8 Z " fill="#397FEA" transform="translate(749,113)"/>
<path d="M0 0 C0.144375 0.598125 0.28875 1.19625 0.4375 1.8125 C0.8872439 3.56150404 1.42892341 5.28677023 2 7 C1.01 7.33 0.02 7.66 -1 8 C-1.33 7.34 -1.66 6.68 -2 6 C-2.66 6.66 -3.32 7.32 -4 8 C-6.58505518 10.58505518 -9.16921159 13.16169108 -11.8125 15.6875 C-14.22906662 17.71162149 -14.22906662 17.71162149 -14 20 C-18.38461538 23 -18.38461538 23 -21 23 C-21 23.66 -21 24.32 -21 25 C-20.34 25.33 -19.68 25.66 -19 26 C-25.625 28.875 -25.625 28.875 -29 30 C-27.41060574 26.06785699 -24.83657498 23.66979654 -21.8125 20.75 C-17.83140707 16.86282539 -14.03803719 12.90488389 -10.4375 8.65625 C-7.56314752 5.34449606 -4.81080257 3.20625412 -1 1 C-0.67 0.67 -0.34 0.34 0 0 Z " fill="#5193EE" transform="translate(125,104)"/>
<path d="M0 0 C0.73239395 0.00960754 1.4647879 0.01921509 2.21937561 0.02911377 C4.62177796 0.06189362 7.02398629 0.10230468 9.42626953 0.14282227 C11.09920585 0.16714397 12.77214919 0.19098648 14.44509888 0.21437073 C18.83455451 0.27700771 23.22388468 0.3461314 27.61322021 0.41662598 C32.09772052 0.48749426 36.58230932 0.55220031 41.06689453 0.61743164 C49.85605508 0.74618097 58.64509261 0.88178619 67.43408203 1.02172852 C67.10408203 2.34172852 66.77408203 3.66172852 66.43408203 5.02172852 C65.77408203 5.02172852 65.11408203 5.02172852 64.43408203 5.02172852 C64.43408203 4.03172852 64.43408203 3.04172852 64.43408203 2.02172852 C54.58424934 2.0366569 44.73492252 2.07848924 34.88535595 2.15381908 C30.31079354 2.18797833 25.73656117 2.21318174 21.16186523 2.21728516 C16.73950033 2.221592 12.31787854 2.25025041 7.89574623 2.29516029 C6.21627457 2.30805955 4.53671364 2.31247008 2.85719872 2.30788231 C-10.69011582 2.2795192 -20.51362509 4.41620421 -30.56591797 14.02172852 C-31.22591797 13.69172852 -31.88591797 13.36172852 -32.56591797 13.02172852 C-22.85115104 3.35389283 -13.70329247 -0.20762564 0 0 Z " fill="#9975CF" transform="translate(123.56591796875,25.978271484375)"/>
<path d="M0 0 C0.33 0 0.66 0 1 0 C1.75347511 22.0558055 2.2765453 43.95137056 1 66 C-0.59883148 63.16904197 -1.24954915 61.14586649 -1.24291992 57.90014648 C-1.24599655 57.10088242 -1.24907318 56.30161835 -1.25224304 55.47813416 C-1.24505753 54.61781082 -1.23787201 53.75748749 -1.23046875 52.87109375 C-1.23001053 51.96738541 -1.22955231 51.06367706 -1.2290802 50.13258362 C-1.22605815 48.21182957 -1.21817326 46.29107797 -1.20581055 44.37036133 C-1.18789063 41.50006915 -1.18529885 38.63010715 -1.18554688 35.75976562 C-1.16192726 23.81172691 -0.75123763 11.92384424 0 0 Z " fill="#202434" transform="translate(518,86)"/>
<path d="M0 0 C0.99 0.33 1.98 0.66 3 1 C1.65158078 3.98444121 0.13502315 6.14172217 -2.125 8.50390625 C-2.7449585 9.15746094 -3.36491699 9.81101562 -4.00366211 10.484375 C-4.99184937 11.51304688 -4.99184937 11.51304688 -6 12.5625 C-7.35613597 13.99025196 -8.71160196 15.41864058 -10.06640625 16.84765625 C-10.7330127 17.54906738 -11.39961914 18.25047852 -12.08642578 18.97314453 C-14.73940645 21.78317841 -17.34575742 24.63353657 -19.9375 27.5 C-20.73027344 28.3765625 -21.52304688 29.253125 -22.33984375 30.15625 C-22.88769531 30.7646875 -23.43554688 31.373125 -24 32 C-24.33 31.01 -24.66 30.02 -25 29 C-22 26 -22 26 -20.5 24.6875 C-18.7852918 22.91921474 -18.7852918 22.91921474 -17.5625 19.9375 C-16 17 -16 17 -13.9375 16.0625 C-11.55970627 15.04087715 -11.55970627 15.04087715 -10.75 11.375 C-10.37875 9.704375 -10.37875 9.704375 -10 8 C-8.02 8 -6.04 8 -4 8 C-4 7.34 -4 6.68 -4 6 C-3.34 6 -2.68 6 -2 6 C-2 5.34 -2 4.68 -2 4 C-1.34 4 -0.68 4 0 4 C0 2.68 0 1.36 0 0 Z " fill="#71B0E7" transform="translate(219,80)"/>
<path d="M0 0 C0.78082171 6.16395717 1.12686854 12.13167726 1.0625 18.33984375 C1.05871338 19.18801163 1.05492676 20.0361795 1.05102539 20.91004944 C1.03893015 23.58592117 1.02028052 26.2616786 1 28.9375 C0.97345685 32.48827798 0.95347879 36.03900438 0.9375 39.58984375 C0.92920166 40.40436508 0.92090332 41.21888641 0.91235352 42.05809021 C0.78741695 46.16027399 0.78741695 46.16027399 2 50 C0.68 49.67 -0.64 49.34 -2 49 C-2 33.82 -2 18.64 -2 3 C-2.66 2.67 -3.32 2.34 -4 2 C-1 0 -1 0 0 0 Z " fill="#212432" transform="translate(637,84)"/>
<path d="M0 0 C0.99 0.66 1.98 1.32 3 2 C2.67 3.32 2.34 4.64 2 6 C2.99 5.34 3.98 4.68 5 4 C5.99 4.33 6.98 4.66 8 5 C8 5.99 8 6.98 8 8 C6.46875 9.38671875 6.46875 9.38671875 4.5 10.6875 C3.8503125 11.12449219 3.200625 11.56148437 2.53125 12.01171875 C2.0259375 12.33785156 1.520625 12.66398437 1 13 C-2.78717347 11.51218185 -4.77407001 9.38011591 -7 6 C-6 3 -6 3 -2.9375 1.3125 C-1.968125 0.879375 -0.99875 0.44625 0 0 Z " fill="#262939" transform="translate(587,87)"/>
<path d="M0 0 C1.32 0.66 2.64 1.32 4 2 C3.43152344 2.4846875 2.86304687 2.969375 2.27734375 3.46875 C-2.2908329 7.43444592 -6.39437153 11.48167914 -10.29296875 16.1015625 C-12.94824356 19.05456835 -15.9266644 21.49115461 -19 24 C-19.66 23.67 -20.32 23.34 -21 23 C-20.67 22.34 -20.34 21.68 -20 21 C-19.01 21 -18.02 21 -17 21 C-16.67 19.68 -16.34 18.36 -16 17 C-15.34 17 -14.68 17 -14 17 C-13.67 16.01 -13.34 15.02 -13 14 C-12.34 14 -11.68 14 -11 14 C-11.33 13.01 -11.66 12.02 -12 11 C-11.34 10.34 -10.68 9.68 -10 9 C-10 8.01 -10 7.02 -10 6 C-8.63875 5.62875 -8.63875 5.62875 -7.25 5.25 C-3.89648511 3.96018658 -2.32291764 2.68028958 0 0 Z " fill="#6531E1" transform="translate(109,100)"/>
<path d="M0 0 C1.98 1.65 3.96 3.3 6 5 C6.33 4.01 6.66 3.02 7 2 C9.97 2.495 9.97 2.495 13 3 C13 4.65 13 6.3 13 8 C13.66 8 14.32 8 15 8 C15.66 9.65 16.32 11.3 17 13 C16.34 13.66 15.68 14.32 15 15 C13.35 12.69 11.7 10.38 10 8 C9.01 8.495 9.01 8.495 8 9 C8 8.34 8 7.68 8 7 C5.02148438 7.09765625 5.02148438 7.09765625 2.04296875 7.1953125 C0 7 0 7 -3 5 C-2.67 4.01 -2.34 3.02 -2 2 C-1.34 2 -0.68 2 0 2 C0 1.34 0 0.68 0 0 Z " fill="#3588FA" transform="translate(907,88)"/>
<path d="M0 0 C3.1098709 1.03662363 3.81944676 1.73222464 6 4 C7.75 5.83333333 7.75 5.83333333 10 7 C13.19235272 6.77426109 13.19235272 6.77426109 16 6 C15.01 4.35 14.02 2.7 13 1 C15.33528415 1.17298401 16.69177582 1.70225369 18.37890625 3.33203125 C22 7.57211538 22 7.57211538 22 10 C6.60188238 11.2223423 6.60188238 11.2223423 2.7578125 8.2890625 C1.07008226 5.52278276 0 3.26468494 0 0 Z " fill="#282C3B" transform="translate(701,125)"/>
<path d="M0 0 C0.66 1.32 1.32 2.64 2 4 C20.48 4 38.96 4 58 4 C58 4.33 58 4.66 58 5 C36.88 5 15.76 5 -6 5 C-5.67 3.68 -5.34 2.36 -5 1 C-3.35 0.67 -1.7 0.34 0 0 Z " fill="#5122BC" transform="translate(18,123)"/>
<path d="M0 0 C2.76544722 3.45680903 4.84921278 7.14341602 7 11 C5.02 11.33 3.04 11.66 1 12 C1.2475 11.4225 1.495 10.845 1.75 10.25 C1.8325 9.5075 1.915 8.765 2 8 C0.10413616 5.85410577 0.10413616 5.85410577 -2 4 C-2 3.34 -2 2.68 -2 2 C-1.34 2 -0.68 2 0 2 C0 1.34 0 0.68 0 0 Z M-9 9 C-8.01 9.33 -7.02 9.66 -6 10 C-6 10.99 -6 11.98 -6 13 C-5.01 13 -4.02 13 -3 13 C-2.67 12.34 -2.34 11.68 -2 11 C-1.01 11.66 -0.02 12.32 1 13 C0.34 13.66 -0.32 14.32 -1 15 C1.39509338 17.89932357 3.31245243 18.50168276 7 19 C7 19.66 7 20.32 7 21 C1.06463221 20.70323161 -2.81952024 18.00789115 -7 14 C-8.5 11.125 -8.5 11.125 -9 9 Z " fill="#3B7DEA" transform="translate(889,114)"/>
<path d="M0 0 C4.31726867 3.749207 5.75298292 6.45806084 7 12 C7.22705078 15.54858398 7.22705078 15.54858398 7.1953125 19.24609375 C7.1924826 19.90207047 7.18965271 20.55804718 7.18673706 21.23390198 C7.17565984 23.30196409 7.15058063 25.36957173 7.125 27.4375 C7.11495402 28.85090515 7.10583102 30.26431717 7.09765625 31.67773438 C7.07576184 35.11863394 7.04132051 38.55927252 7 42 C6.67 42 6.34 42 6 42 C5.9498877 41.18845459 5.89977539 40.37690918 5.84814453 39.54077148 C5.61505767 35.83913019 5.37013865 32.1383619 5.125 28.4375 C5.04636719 27.16068359 4.96773437 25.88386719 4.88671875 24.56835938 C4.47406401 18.45789499 4.07072069 12.78583724 2 7 C1.67 7 1.34 7 1 7 C0.67 4.69 0.34 2.38 0 0 Z " fill="#4384D9" transform="translate(863,88)"/>
<path d="M0 0 C1.98 0 3.96 0 6 0 C0.44964797 6.78376359 -5.76442027 12.85522968 -12 19 C-12.33 17.68 -12.66 16.36 -13 15 C-12.01 14.67 -11.02 14.34 -10 14 C-8.97718482 11.90280128 -8.97718482 11.90280128 -8.3125 9.4375 C-8.06113281 8.61121094 -7.80976563 7.78492188 -7.55078125 6.93359375 C-7.36902344 6.29550781 -7.18726563 5.65742187 -7 5 C-5.68 5.33 -4.36 5.66 -3 6 C-2.67 5.34 -2.34 4.68 -2 4 C-1.33333333 2.66666667 -0.66666667 1.33333333 0 0 Z " fill="#A073E9" transform="translate(154,53)"/>
<path d="M0 0 C1.65 0 3.3 0 5 0 C5.66 0.66 6.32 1.32 7 2 C7.99 2.33 8.98 2.66 10 3 C10.33 3.99 10.66 4.98 11 6 C10.34 6 9.68 6 9 6 C9 6.66 9 7.32 9 8 C8.34 8 7.68 8 7 8 C7 8.99 7 9.98 7 11 C5.68 11.33 4.36 11.66 3 12 C2.01 8.04 1.02 4.08 0 0 Z " fill="#8F67F6" transform="translate(214,34)"/>
<path d="M0 0 C3.66240092 1.56960039 4.93903646 2.93903646 8 6 C5.69 8.97 3.38 11.94 1 15 C-3 14 -3 14 -4.25 11.9375 C-4.4975 11.298125 -4.745 10.65875 -5 10 C-2.525 10.99 -2.525 10.99 0 12 C1.0812391 5.93949386 1.0812391 5.93949386 0 0 Z " fill="#232936" transform="translate(297,70)"/>
<path d="M0 0 C0.66 0.99 1.32 1.98 2 3 C0.92456217 3.98783194 -0.16073217 4.96493943 -1.25 5.9375 C-2.15492188 6.75541016 -2.15492188 6.75541016 -3.078125 7.58984375 C-5.08467305 9.06212799 -6.57002449 9.57529189 -9 10 C-8.34 8.68 -7.68 7.36 -7 6 C-7.99 5.67 -8.98 5.34 -10 5 C-9 2 -9 2 -7.25 0.8125 C-4.6198865 -0.13726321 -2.77429757 -0.36503915 0 0 Z " fill="#2F84F9" transform="translate(139,168)"/>
<path d="M0 0 C2.0625 0.4375 2.0625 0.4375 4 1 C3.01 2.485 3.01 2.485 2 4 C1.34 4 0.68 4 0 4 C-0.0825 4.721875 -0.165 5.44375 -0.25 6.1875 C-1.14750201 9.55313254 -2.7114278 11.41612816 -5 14 C-7.475 13.01 -7.475 13.01 -10 12 C-10 10.35 -10 8.7 -10 7 C-7.33333333 7 -4.66666667 7 -2 7 C-1.855625 6.030625 -1.71125 5.06125 -1.5625 4.0625 C-1 1 -1 1 0 0 Z " fill="#68AFF1" transform="translate(194,105)"/>
<path d="M0 0 C0.33 0.99 0.66 1.98 1 3 C1.66 3 2.32 3 3 3 C3 9.6 3 16.2 3 23 C2.01 23 1.02 23 0 23 C0 15.41 0 7.82 0 0 Z " fill="#1A1F2C" transform="translate(528,128)"/>
<path d="M0 0 C0 3 0 3 -1.49609375 4.68359375 C-2.78763532 5.85039891 -4.07930147 7.01706617 -5.37109375 8.18359375 C-7.15438763 10.17215887 -7.46476327 11.43735142 -8 14 C-10.80017874 15.90012129 -13.6936092 16.44893487 -17 17 C-17 17.66 -17 18.32 -17 19 C-18.32 18.67 -19.64 18.34 -21 18 C-20.32195313 17.53851563 -19.64390625 17.07703125 -18.9453125 16.6015625 C-11.85940426 11.63553816 -5.93441828 6.28198724 0 0 Z " fill="#3C7DDA" transform="translate(70,160)"/>
<path d="M0 0 C0.33 1.32 0.66 2.64 1 4 C-3.75 7 -3.75 7 -6 7 C-6 7.66 -6 8.32 -6 9 C-5.34 9.33 -4.68 9.66 -4 10 C-10.625 12.875 -10.625 12.875 -14 14 C-12.5466378 10.65876526 -10.70404484 8.43458035 -8.125 5.875 C-7.44695312 5.19179687 -6.76890625 4.50859375 -6.0703125 3.8046875 C-4.11264331 2.09819096 -2.3692591 1.03057459 0 0 Z " fill="#428BE7" transform="translate(110,120)"/>
<path d="M0 0 C0.66 0.33 1.32 0.66 2 1 C0.625 3 0.625 3 -1 5 C-1.66 5 -2.32 5 -3 5 C-3 7.31 -3 9.62 -3 12 C-3.66 12 -4.32 12 -5 12 C-5.33 15.63 -5.66 19.26 -6 23 C-8.49289129 19.26066306 -8.63282423 16.3294438 -8 12 C-6.30357902 7.16432576 -3.91828713 3.35853183 0 0 Z " fill="#222735" transform="translate(382,90)"/>
<path d="M0 0 C0.66 0.33 1.32 0.66 2 1 C1.360625 1.2475 0.72125 1.495 0.0625 1.75 C-2.17077103 2.80256744 -2.17077103 2.80256744 -2.6875 5 C-2.8421875 5.99 -2.8421875 5.99 -3 7 C-3.33 7.66 -3.66 8.32 -4 9 C-5.32 9 -6.64 9 -8 9 C-8.2475 9.969375 -8.495 10.93875 -8.75 11.9375 C-9.1625 12.948125 -9.575 13.95875 -10 15 C-12.125 15.875 -12.125 15.875 -14 16 C-11.77553498 8.65926543 -6.40600748 3.81309969 0 0 Z " fill="#3B7FDB" transform="translate(764,69)"/>
<path d="M0 0 C0.33 0.66 0.66 1.32 1 2 C11.56 2 22.12 2 33 2 C33 2.33 33 2.66 33 3 C29.7 3 26.4 3 23 3 C22.67 3.66 22.34 4.32 22 5 C8.14 4.505 8.14 4.505 -6 4 C-4.68 3.34 -3.36 2.68 -2 2 C-1.34 1.34 -0.68 0.68 0 0 Z " fill="#3C91FD" transform="translate(126,126)"/>
<path d="M0 0 C1.98 0 3.96 0 6 0 C7.15299221 4.35574833 6.80558057 6.16651657 6 11 C-5.385 10.505 -5.385 10.505 -17 10 C-17 9.67 -17 9.34 -17 9 C-9.74 9 -2.48 9 5 9 C2.35143175 3.39277666 2.35143175 3.39277666 0 0 Z " fill="#3B80DC" transform="translate(908,95)"/>
<path d="M0 0 C0.99 0.33 1.98 0.66 3 1 C1.58295703 4.10632572 -0.10833811 6.5825814 -2.3125 9.1875 C-3.17294922 10.22970703 -3.17294922 10.22970703 -4.05078125 11.29296875 C-6.3526152 13.30880329 -7.99853484 13.65387579 -11 14 C-11.042721 12.33388095 -11.04063832 10.66617115 -11 9 C-10 8 -10 8 -6.9375 7.9375 C-5.4834375 7.9684375 -5.4834375 7.9684375 -4 8 C-4 7.34 -4 6.68 -4 6 C-3.34 6 -2.68 6 -2 6 C-2 5.34 -2 4.68 -2 4 C-1.34 4 -0.68 4 0 4 C0 2.68 0 1.36 0 0 Z " fill="#77B2E1" transform="translate(219,80)"/>
<path d="M0 0 C2.97 0.495 2.97 0.495 6 1 C6 1.66 6 2.32 6 3 C6.94875 3.28875 7.8975 3.5775 8.875 3.875 C12 5 12 5 14 7 C7.80112515 7.37952295 3.5522888 6.8352113 -2 4 C-1.34 2.68 -0.68 1.36 0 0 Z " fill="#2D3344" transform="translate(349,129)"/>
<path d="M0 0 C0.99 0.33 1.98 0.66 3 1 C2.67 1.99 2.34 2.98 2 4 C2.66 4 3.32 4 4 4 C3.01 7.3 2.02 10.6 1 14 C0.34 14 -0.32 14 -1 14 C-2.6491828 9.74684436 -3.49974625 7.3351775 -1.625 3.0625 C-1.08875 2.051875 -0.5525 1.04125 0 0 Z " fill="#3F86F1" transform="translate(761,82)"/>
<path d="M0 0 C12.87 0 25.74 0 39 0 C38.67 1.32 38.34 2.64 38 4 C37.34 4 36.68 4 36 4 C36 3.01 36 2.02 36 1 C24.12 1 12.24 1 0 1 C0 0.67 0 0.34 0 0 Z " fill="#9E81CD" transform="translate(152,27)"/>
<path d="M0 0 C1.32 0.66 2.64 1.32 4 2 C0.6189962 6.13621084 -2.66590534 9.81316569 -7 13 C-7 12.01 -7 11.02 -7 10 C-6.34 10 -5.68 10 -5 10 C-5 8.35 -5 6.7 -5 5 C-3.68 4.67 -2.36 4.34 -1 4 C-0.67 2.68 -0.34 1.36 0 0 Z " fill="#6C3FD0" transform="translate(124,83)"/>
<path d="M0 0 C-1.20381448 2.49361571 -2.45428722 4.68143083 -4 7 C-3.21625 7.61875 -2.4325 8.2375 -1.625 8.875 C1 11 1 11 3 13 C0 14 0 14 -1.7890625 13.14453125 C-2.39492188 12.70496094 -3.00078125 12.26539063 -3.625 11.8125 C-4.23601562 11.38582031 -4.84703125 10.95914063 -5.4765625 10.51953125 C-7.31558171 8.68522747 -7.80783965 7.58405108 -8 5 C-3.90909091 0 -3.90909091 0 0 0 Z " fill="#242731" transform="translate(463,117)"/>
<path d="M0 0 C-1.79036458 0.9765625 -3.58072917 1.953125 -5.37109375 2.9296875 C-7.16618315 3.91410024 -7.16618315 3.91410024 -8 6 C-8.928125 6.28875 -9.85625 6.5775 -10.8125 6.875 C-14.18974227 8.06696786 -15.68562449 9.32956672 -18 12 C-18.66 11.67 -19.32 11.34 -20 11 C-15.34656281 5.65316985 -7.59436285 -2.53145428 0 0 Z " fill="#69A3E6" transform="translate(152,83)"/>
<path d="M0 0 C0.99 0.33 1.98 0.66 3 1 C0.96620584 4.05069124 0.16593866 4.57022125 -3 6 C-3.33 6.33 -3.66 6.66 -4 7 C-6.09671688 7.28950484 -8.20361206 7.50687222 -10.3125 7.6875 C-11.46363281 7.79449219 -12.61476563 7.90148437 -13.80078125 8.01171875 C-16.93719729 8.00023005 -18.40644303 7.67140338 -21 6 C-20.67 5.34 -20.34 4.68 -20 4 C-18.865625 4.391875 -17.73125 4.78375 -16.5625 5.1875 C-11.55072697 6.45381988 -7.53880265 5.33654337 -3 3 C-1.27494524 1.47442477 -1.27494524 1.47442477 0 0 Z " fill="#4585DD" transform="translate(916,118)"/>
<path d="M0 0 C2.52469299 1.2623465 2.65658776 2.19870477 3.75 4.75 C5.17136845 7.73647078 6.44792955 9.65682865 9.0625 11.6875 C11.94126299 13.95376023 13.34332268 15.77868298 15 19 C7.4497163 15.8056492 3.13430253 10.40582987 0 3 C0 2.01 0 1.02 0 0 Z " fill="#417CD5" transform="translate(749,113)"/>
<path d="M0 0 C2.97 0.495 2.97 0.495 6 1 C6 2.65 6 4.3 6 6 C6.66 6 7.32 6 8 6 C8.66 7.65 9.32 9.3 10 11 C9.34 11.66 8.68 12.32 8 13 C6.35 10.69 4.7 8.38 3 6 C2.01 6.495 2.01 6.495 1 7 C0.67 6.01 0.34 5.02 0 4 C0.66 3.67 1.32 3.34 2 3 C2 2.34 2 1.68 2 1 C1.34 0.67 0.68 0.34 0 0 Z " fill="#2D82F7" transform="translate(914,90)"/>
<path d="M0 0 C0 0.99 0 1.98 0 3 C-1.33333333 4.33333333 -2.66666667 5.66666667 -4 7 C-4.309375 7.845625 -4.61875 8.69125 -4.9375 9.5625 C-6.33919799 12.77816008 -7.95046161 13.33661543 -11 15 C-13.0598434 16.60425451 -15.01995312 18.29623873 -17 20 C-15.66000502 16.993182 -14.20154709 15.00237391 -11.8125 12.75 C-8.47591933 9.51834325 -5.41258922 6.12045116 -2.3828125 2.6015625 C-1.61429517 1.71147181 -0.83152881 0.83152881 0 0 Z " fill="#8762C7" transform="translate(90,40)"/>
<path d="M0 0 C0.66 0 1.32 0 2 0 C2.67258667 2.33163378 3.33847444 4.6652039 4 7 C4.2165625 7.61875 4.433125 8.2375 4.65625 8.875 C5.1293497 11.79961635 4.40308637 13.92562981 3.5625 16.75 C3.13130859 18.22726563 3.13130859 18.22726563 2.69140625 19.734375 C2.46324219 20.48203125 2.23507812 21.2296875 2 22 C1.34 22 0.68 22 0 22 C0.165 21.195625 0.33 20.39125 0.5 19.5625 C1.43215204 12.92091673 1.12228323 6.59341395 0 0 Z " fill="#397AD6" transform="translate(799,90)"/>
<path d="M0 0 C0 0.66 0 1.32 0 2 C-0.99 2 -1.98 2 -3 2 C-3.33 3.32 -3.66 4.64 -4 6 C-4.66 6 -5.32 6 -6 6 C-6 6.66 -6 7.32 -6 8 C-6.99 8 -7.98 8 -9 8 C-9.103125 8.763125 -9.20625 9.52625 -9.3125 10.3125 C-10.05790616 13.22636046 -10.84458939 14.02950397 -13 16 C-11.64112501 9.75766801 -7.67682628 0 0 0 Z " fill="#3A7BDD" transform="translate(890,87)"/>
<path d="M0 0 C0.66 0.33 1.32 0.66 2 1 C2 1.66 2 2.32 2 3 C-3.47619048 8 -3.47619048 8 -6 8 C-5.67 9.32 -5.34 10.64 -5 12 C-6.65 12.66 -8.3 13.32 -10 14 C-10 9.88181592 -8.33436007 8.84145243 -5.5625 5.875 C-4.73878906 4.98554687 -3.91507812 4.09609375 -3.06640625 3.1796875 C-1 1 -1 1 0 0 Z " fill="#8551EA" transform="translate(81,52)"/>
<path d="M0 0 C1.65 0.33 3.3 0.66 5 1 C1.49102731 5.18423892 -2.08060535 9.19588166 -6 13 C-6.99 12.67 -7.98 12.34 -9 12 C-5.66666667 8.66666667 -2.33333333 5.33333333 1 2 C0.67 1.34 0.34 0.68 0 0 Z " fill="#1E2233" transform="translate(716,86)"/>
<path d="M0 0 C0.66 0 1.32 0 2 0 C2.33 0.99 2.66 1.98 3 3 C3.556875 2.505 4.11375 2.01 4.6875 1.5 C7.38162983 -0.24754367 8.85375007 -0.26218749 12 0 C11 2 11 2 8 3.375 C4.86591729 4.65905291 4.86591729 4.65905291 4.125 7.1875 C4.08375 7.785625 4.0425 8.38375 4 9 C2 7.875 2 7.875 0 6 C-0.25 2.8125 -0.25 2.8125 0 0 Z " fill="#222736" transform="translate(528,86)"/>
<path d="M0 0 C0.66 0 1.32 0 2 0 C2 0.66 2 1.32 2 2 C2.66 2.33 3.32 2.66 4 3 C2.69088122 4.50295185 1.37761608 6.00229311 0.0625 7.5 C-0.66839844 8.3353125 -1.39929688 9.170625 -2.15234375 10.03125 C-2.76207031 10.6809375 -3.37179688 11.330625 -4 12 C-4.33 12 -4.66 12 -5 12 C-5 10.02 -5 8.04 -5 6 C-4.01 5.67 -3.02 5.34 -2 5 C-0.78130071 2.49552484 -0.78130071 2.49552484 0 0 Z " fill="#3A86E7" transform="translate(150,153)"/>
<path d="M0 0 C4.83238256 4.51022372 6.19444172 7.64810633 6.625 14.25 C6.69976563 15.32765625 6.77453125 16.4053125 6.8515625 17.515625 C6.92503906 18.74539062 6.92503906 18.74539062 7 20 C6.34 19.67 5.68 19.34 5 19 C4.65625 17.109375 4.65625 17.109375 4.5 14.75 C4.18520449 11.16133117 3.58627129 8.27829401 2 5 C1.34 5 0.68 5 0 5 C0 3.35 0 1.7 0 0 Z " fill="#5287D2" transform="translate(920,91)"/>
<path d="M0 0 C4.29 0.99 8.58 1.98 13 3 C13 3.33 13 3.66 13 4 C11.04310341 4.22142255 9.08438048 4.4267568 7.125 4.625 C5.48917969 4.79902344 5.48917969 4.79902344 3.8203125 4.9765625 C2.42425781 4.98816406 2.42425781 4.98816406 1 5 C0.34 4.34 -0.32 3.68 -1 3 C-0.67 2.01 -0.34 1.02 0 0 Z " fill="#242737" transform="translate(474,121)"/>
<path d="M0 0 C-1.38238352 3.10009769 -2.98578859 5.28263873 -5.375 7.6875 C-5.96023437 8.28949219 -6.54546875 8.89148438 -7.1484375 9.51171875 C-9.12608914 11.10135013 -10.5214179 11.5905426 -13 12 C-12.67 11.01 -12.34 10.02 -12 9 C-11.01 9 -10.02 9 -9 9 C-8.67 7.68 -8.34 6.36 -8 5 C-7.34 5 -6.68 5 -6 5 C-5.67 4.01 -5.34 3.02 -5 2 C-2 0 -2 0 0 0 Z " fill="#6040BD" transform="translate(101,112)"/>
<path d="M0 0 C0.66 0 1.32 0 2 0 C2.13277344 0.68707031 2.26554687 1.37414062 2.40234375 2.08203125 C2.57894531 2.98308594 2.75554687 3.88414063 2.9375 4.8125 C3.11152344 5.70582031 3.28554688 6.59914063 3.46484375 7.51953125 C3.97741153 10.11397171 3.97741153 10.11397171 5 13 C5.66 13.33 6.32 13.66 7 14 C6.01 14.33 5.02 14.66 4 15 C0.40621058 9.60931587 -0.45356243 6.46326465 0 0 Z " fill="#232534" transform="translate(255,84)"/>
<path d="M0 0 C2.31 0 4.62 0 7 0 C3.28249221 4.20240011 -1.31660979 6.99782679 -6 10 C-6 9.01 -6 8.02 -6 7 C-5.01 6.67 -4.02 6.34 -3 6 C-2.26676204 3.98491642 -2.26676204 3.98491642 -2 2 C-1.34 2 -0.68 2 0 2 C0 1.34 0 0.68 0 0 Z " fill="#A67DE5" transform="translate(177,32)"/>
<path d="M0 0 C0.66 0 1.32 0 2 0 C1.67 4.29 1.34 8.58 1 13 C0.34 12.01 -0.32 11.02 -1 10 C-1.99 10.495 -1.99 10.495 -3 11 C-2.44894091 7.0507432 -1.61064629 3.65079826 0 0 Z " fill="#7464D0" transform="translate(221,20)"/>
<path d="M0 0 C3.3 0.33 6.6 0.66 10 1 C10 1.66 10 2.32 10 3 C14.62 3 19.24 3 24 3 C24 3.33 24 3.66 24 4 C7.1070615 4.55353075 7.1070615 4.55353075 0 1 C0 0.67 0 0.34 0 0 Z " fill="#4780D8" transform="translate(764,132)"/>
<path d="M0 0 C3.7910119 1.44950455 7.3874638 3.15172566 11 5 C11.33 4.34 11.66 3.68 12 3 C12 3.99 12 4.98 12 6 C10.35 6 8.7 6 7 6 C6.67 7.32 6.34 8.64 6 10 C5.566875 9.236875 5.13375 8.47375 4.6875 7.6875 C3.16247642 5.03713747 3.16247642 5.03713747 1.3125 3.3125 C0.879375 2.879375 0.44625 2.44625 0 2 C0 1.34 0 0.68 0 0 Z " fill="#8970C8" transform="translate(206,27)"/>
<path d="M0 0 C1.32 0.66 2.64 1.32 4 2 C1.03 4.64 -1.94 7.28 -5 10 C-5.33 9.01 -5.66 8.02 -6 7 C-5.34 7 -4.68 7 -4 7 C-4 6.01 -4 5.02 -4 4 C-2 1.8125 -2 1.8125 0 0 Z " fill="#633DC5" transform="translate(109,100)"/>
<path d="M0 0 C0.99 0.99 1.98 1.98 3 3 C2.01 3.33 1.02 3.66 0 4 C-1.20882096 6.00016466 -1.20882096 6.00016466 -2 8 C-2.99 7.67 -3.98 7.34 -5 7 C-4.67 5.68 -4.34 4.36 -4 3 C-3.34 3 -2.68 3 -2 3 C-2 2.34 -2 1.68 -2 1 C-1.34 0.67 -0.68 0.34 0 0 Z " fill="#7031E0" transform="translate(109,96)"/>
<path d="M0 0 C0.99 0.33 1.98 0.66 3 1 C0.69 3.97 -1.62 6.94 -4 10 C-5.32 9.67 -6.64 9.34 -8 9 C-8.33 8.01 -8.66 7.02 -9 6 C-7.68 6 -6.36 6 -5 6 C-3.45039499 4.71881303 -3.45039499 4.71881303 -2.25 3 C-1.5075 2.01 -0.765 1.02 0 0 Z " fill="#272D37" transform="translate(505,75)"/>
<path d="M0 0 C0.99 0.66 1.98 1.32 3 2 C2.01 2.495 2.01 2.495 1 3 C1.061875 4.1446875 1.061875 4.1446875 1.125 5.3125 C1 8 1 8 -1 11 C-1.66 11 -2.32 11 -3 11 C-3.36923077 3.49230769 -3.36923077 3.49230769 -1.5 1 C-1.005 0.67 -0.51 0.34 0 0 Z " fill="#262935" transform="translate(316,65)"/>
<path d="M0 0 C0.66 0.33 1.32 0.66 2 1 C0.56665422 2.62866544 -0.87182979 4.25280994 -2.3125 5.875 C-3.51326172 7.23238281 -3.51326172 7.23238281 -4.73828125 8.6171875 C-7 11 -7 11 -10 13 C-10.33 12.01 -10.66 11.02 -11 10 C-10.01 10 -9.02 10 -8 10 C-8 9.01 -8 8.02 -8 7 C-7.360625 6.71125 -6.72125 6.4225 -6.0625 6.125 C-3.84793921 5.17176549 -3.84793921 5.17176549 -3 3 C-2.34 3 -1.68 3 -1 3 C-0.67 2.01 -0.34 1.02 0 0 Z " fill="#4487D6" transform="translate(165,141)"/>
<path d="M0 0 C0.99 0 1.98 0 3 0 C4.52491998 3.04983996 4.23562548 5.6423369 4 9 C2.5 10.9375 2.5 10.9375 1 12 C0.01 11.67 -0.98 11.34 -2 11 C-1.505 10.443125 -1.01 9.88625 -0.5 9.3125 C1.2666573 6.58890332 1.33531397 5.18548267 1 2 C0.67 1.34 0.34 0.68 0 0 Z " fill="#232532" transform="translate(325,67)"/>
<path d="M0 0 C0.33 0.99 0.66 1.98 1 3 C-1.89380576 7.17048478 -3.98990293 9.56854369 -9 11 C-7.71480435 8.13302508 -6.42870746 6.02392288 -4 4 C-3.34 4 -2.68 4 -2 4 C-1.34 2.68 -0.68 1.36 0 0 Z " fill="#3F79D7" transform="translate(89,140)"/>
<path d="M0 0 C0.99 0.33 1.98 0.66 3 1 C0.36 3.97 -2.28 6.94 -5 10 C-6 6 -6 6 -5 3 C-4.01 3 -3.02 3 -2 3 C-1.34 2.01 -0.68 1.02 0 0 Z " fill="#4E8FE3" transform="translate(176,128)"/>
<path d="M0 0 C-6.01780809 3.20949765 -9.31996686 3.00830689 -16 2 C-11.41597775 -0.8650139 -5.13225643 -1.92459616 0 0 Z " fill="#4498FC" transform="translate(177,126)"/>
<path d="M0 0 C-0.66 1.32 -1.32 2.64 -2 4 C-2.66 4 -3.32 4 -4 4 C-4.99 7.465 -4.99 7.465 -6 11 C-6.33 11 -6.66 11 -7 11 C-7.48798077 4.65625 -7.48798077 4.65625 -5.1875 1.5625 C-3 0 -3 0 0 0 Z " fill="#252A36" transform="translate(478,77)"/>
<path d="M0 0 C0.99 0.99 1.98 1.98 3 3 C1.92456217 3.98783194 0.83926783 4.96493943 -0.25 5.9375 C-1.15492188 6.75541016 -1.15492188 6.75541016 -2.078125 7.58984375 C-4.08467305 9.06212799 -5.57002449 9.57529189 -8 10 C-6.37660195 8.29115995 -4.70680947 6.62553283 -3 5 C-2.34 5 -1.68 5 -1 5 C-1 4.34 -1 3.68 -1 3 C-1.66 2.67 -2.32 2.34 -3 2 C-2.01 1.34 -1.02 0.68 0 0 Z " fill="#367BE0" transform="translate(138,168)"/>
<path d="M0 0 C0.66 1.32 1.32 2.64 2 4 C-0.64 4.33 -3.28 4.66 -6 5 C-5.67 3.68 -5.34 2.36 -5 1 C-3.35 0.67 -1.7 0.34 0 0 Z " fill="#5629CB" transform="translate(18,123)"/>
<path d="M0 0 C1.65 0 3.3 0 5 0 C5.33 1.98 5.66 3.96 6 6 C5.01 6.33 4.02 6.66 3 7 C2.01 6.34 1.02 5.68 0 5 C-0.1875 2.375 -0.1875 2.375 0 0 Z " fill="#5EB2F8" transform="translate(184,112)"/>
<path d="M0 0 C0.33 0.66 0.66 1.32 1 2 C4.96 1.34 8.92 0.68 13 0 C13 1.65 13 3.3 13 5 C8.71 4.34 4.42 3.68 0 3 C0 2.01 0 1.02 0 0 Z " fill="#7C62CB" transform="translate(201,38)"/>
<path d="M0 0 C0.53625 0.144375 1.0725 0.28875 1.625 0.4375 C4.39915827 1.09453748 7.18525388 1.55219948 10 2 C9.34 3.32 8.68 4.64 8 6 C4.74456771 5.65120368 3.98126893 4.97866739 1.75 2.4375 C1.1725 1.633125 0.595 0.82875 0 0 Z " fill="#232737" transform="translate(579,127)"/>
<path d="M0 0 C0.99 0 1.98 0 3 0 C3.27429625 5.39449293 3.36055646 8.51925805 0 13 C-1.24921469 10.50157063 -0.92338287 9.24449196 -0.5625 6.5 C-0.14050645 3.25897568 -0.14050645 3.25897568 0 0 Z " fill="#3F7EE5" transform="translate(811,106)"/>
<path d="M0 0 C5.27315333 0.4452885 10.01770224 1.08373163 15 3 C13.359375 4.1171875 13.359375 4.1171875 11 5 C8.203125 4.3203125 8.203125 4.3203125 5.25 3.125 C4.26515625 2.73570313 3.2803125 2.34640625 2.265625 1.9453125 C1.14414062 1.47738281 1.14414062 1.47738281 0 1 C0 0.67 0 0.34 0 0 Z " fill="#222530" transform="translate(468,102)"/>
<path d="M0 0 C1.65 0 3.3 0 5 0 C5 0.99 5 1.98 5 3 C5.99 3.33 6.98 3.66 8 4 C4.78548731 5.60725635 1.56387464 5.05748185 -2 5 C-1.34 3.35 -0.68 1.7 0 0 Z " fill="#4487E7" transform="translate(899,90)"/>
<path d="M0 0 C0.99 0 1.98 0 3 0 C2.67 3.96 2.34 7.92 2 12 C1.01 11.67 0.02 11.34 -1 11 C-0.67 7.37 -0.34 3.74 0 0 Z " fill="#252833" transform="translate(665,85)"/>
<path d="M0 0 C0 0.66 0 1.32 0 2 C0.66 2.33 1.32 2.66 2 3 C1.0022242 5.99332739 0.2477975 6.94766315 -2 9 C-3.125 5.25 -3.125 5.25 -2 3 C-2.66 3 -3.32 3 -4 3 C-4 2.34 -4 1.68 -4 1 C-2 0 -2 0 0 0 Z " fill="#AB70F7" transform="translate(164,40)"/>
<path d="M0 0 C0.66 0 1.32 0 2 0 C1.43454163 3.95820859 0.19097652 6.6659053 -2 10 C-2.99 9.67 -3.98 9.34 -5 9 C-5 5.69674728 -2.241448 4.241448 0 2 C0 1.34 0 0.68 0 0 Z " fill="#242735" transform="translate(292,114)"/>
<path d="M0 0 C2.95409701 1.37154504 5.44008376 2.98863724 8 5 C7.67 5.66 7.34 6.32 7 7 C6.4225 6.505 5.845 6.01 5.25 5.5 C2.89599371 3.63019987 2.89599371 3.63019987 -1 4 C-1.33 4.66 -1.66 5.32 -2 6 C-1.125 1.125 -1.125 1.125 0 0 Z " fill="#30333C" transform="translate(260,114)"/>
<path d="M0 0 C0.66 0.66 1.32 1.32 2 2 C1.67 2.99 1.34 3.98 1 5 C0.01 4.67 -0.98 4.34 -2 4 C-1.34 2.68 -0.68 1.36 0 0 Z M-7 6 C-6.01 6 -5.02 6 -4 6 C-3.67 7.32 -3.34 8.64 -3 10 C-4.65 9.67 -6.3 9.34 -8 9 C-7.67 8.01 -7.34 7.02 -7 6 Z " fill="#7233E4" transform="translate(122,82)"/>
<path d="M0 0 C0.33 0 0.66 0 1 0 C1.33 4.95 1.66 9.9 2 15 C1.34 15 0.68 15 0 15 C0 14.34 0 13.68 0 13 C-1.65 13 -3.3 13 -5 13 C-5 12.67 -5 12.34 -5 12 C-3.35 12 -1.7 12 0 12 C0 8.04 0 4.08 0 0 Z " fill="#202437" transform="translate(686,120)"/>
<path d="M0 0 C0.33 0.66 0.66 1.32 1 2 C-0.73397418 5.65047197 -2.19333016 7.55609075 -6 9 C-6 8.01 -6 7.02 -6 6 C-5.34 6 -4.68 6 -4 6 C-3.71125 5.195625 -3.4225 4.39125 -3.125 3.5625 C-2 1 -2 1 0 0 Z " fill="#232635" transform="translate(558,115)"/>
<path d="M0 0 C0.26554688 0.55171875 0.53109375 1.1034375 0.8046875 1.671875 C2.13882709 4.27039525 3.61258631 6.75122955 5.125 9.25 C5.93324219 10.58804688 5.93324219 10.58804688 6.7578125 11.953125 C7.16773438 12.62859375 7.57765625 13.3040625 8 14 C6.68 13.34 5.36 12.68 4 12 C4 11.34 4 10.68 4 10 C3.34 10 2.68 10 2 10 C-0.4294516 6.3558226 -0.16179575 4.28758728 0 0 Z " fill="#4580D5" transform="translate(761,106)"/>
<path d="M0 0 C1.32 0 2.64 0 4 0 C4.33 1.32 4.66 2.64 5 4 C3.02 4.66 1.04 5.32 -1 6 C-1.042721 4.33388095 -1.04063832 2.66617115 -1 1 C-0.67 0.67 -0.34 0.34 0 0 Z " fill="#76B8FB" transform="translate(209,88)"/>
<path d="M0 0 C1.5 1.375 1.5 1.375 3 3 C3 3.66 3 4.32 3 5 C2.34 5 1.68 5 1 5 C1 6.65 1 8.3 1 10 C0.67 9.34 0.34 8.68 0 8 C-0.66 8 -1.32 8 -2 8 C-1.34 5.36 -0.68 2.72 0 0 Z " fill="#232435" transform="translate(579,111)"/>
<path d="M0 0 C0.33 0.66 0.66 1.32 1 2 C1.66 2.33 2.32 2.66 3 3 C-3.625 5.875 -3.625 5.875 -7 7 C-5.54744301 3.17053157 -3.57104439 1.87949705 0 0 Z " fill="#3780E4" transform="translate(103,127)"/>
<path d="M0 0 C1.134375 0.020625 2.26875 0.04125 3.4375 0.0625 C3.7675 1.0525 4.0975 2.0425 4.4375 3.0625 C3.4475 3.0625 2.4575 3.0625 1.4375 3.0625 C1.1075 4.0525 0.7775 5.0425 0.4375 6.0625 C0.169375 5.423125 -0.09875 4.78375 -0.375 4.125 C-1.44917752 1.73118314 -1.44917752 1.73118314 -4.5625 1.0625 C-3.5625 0.0625 -3.5625 0.0625 0 0 Z " fill="#3A3D4B" transform="translate(549.5625,82.9375)"/>
<path d="M0 0 C0.66 0.33 1.32 0.66 2 1 C-0.97 3.97 -3.94 6.94 -7 10 C-7.33 9.34 -7.66 8.68 -8 8 C-7.34 7.01 -6.68 6.02 -6 5 C-5.34 5 -4.68 5 -4 5 C-3.67 4.01 -3.34 3.02 -3 2 C-2.01 1.34 -1.02 0.68 0 0 Z " fill="#A07EDA" transform="translate(168,43)"/>
<path d="M0 0 C1.25541557 3.76624671 0.37061958 5.37188934 -1 9 C-1.66 8.67 -2.32 8.34 -3 8 C-3.1875 5.125 -3.1875 5.125 -3 2 C-2.01 1.34 -1.02 0.68 0 0 Z " fill="#7262C3" transform="translate(220,46)"/>
<path d="M0 0 C-0.33 0.99 -0.66 1.98 -1 3 C-3.64 3.33 -6.28 3.66 -9 4 C-6.25137935 -0.12293098 -4.89482776 0 0 0 Z " fill="#338BFB" transform="translate(161,145)"/>
<path d="M0 0 C1.32 0.66 2.64 1.32 4 2 C1.42910583 4.11180592 -0.63060567 5.66306057 -4 6 C-4.66 5.34 -5.32 4.68 -6 4 C-4.02 2.68 -2.04 1.36 0 0 Z " fill="#222736" transform="translate(413,119)"/>
<path d="M0 0 C0.66 0 1.32 0 2 0 C1.5206753 4.31392226 0.2542015 6.16569547 -3 9 C-3.99 8.67 -4.98 8.34 -6 8 C-5.38125 7.4225 -4.7625 6.845 -4.125 6.25 C-2.18652947 4.19750179 -1.09985751 2.56633418 0 0 Z " fill="#222635" transform="translate(612,115)"/>
<path d="M0 0 C0 1.98 0 3.96 0 6 C-1.98 6.33 -3.96 6.66 -6 7 C-2.86206897 0 -2.86206897 0 0 0 Z " fill="#649BE4" transform="translate(132,95)"/>
<path d="M0 0 C0.66 0.66 1.32 1.32 2 2 C1.625 4.125 1.625 4.125 1 6 C0.34 6 -0.32 6 -1 6 C-1.33 6.66 -1.66 7.32 -2 8 C-2.66 6.68 -3.32 5.36 -4 4 C-2.68 2.68 -1.36 1.36 0 0 Z " fill="#9056E8" transform="translate(93,39)"/>
<path d="M0 0 C0.33 1.98 0.66 3.96 1 6 C0.01 6.495 0.01 6.495 -1 7 C-1.33 6.01 -1.66 5.02 -2 4 C-2.99 3.67 -3.98 3.34 -5 3 C-5 2.34 -5 1.68 -5 1 C-3 0 -3 0 0 0 Z " fill="#262938" transform="translate(368,122)"/>
<path d="M0 0 C1.09658936 3.28976808 0.79953138 4.71303767 0 8 C-3 8 -3 8 -5 7 C-3.35 4.69 -1.7 2.38 0 0 Z " fill="#3C7DE0" transform="translate(798,112)"/>
<path d="M0 0 C1.65689836 3.31379672 2.54152804 5.42391873 3 9 C2.67 9.99 2.34 10.98 2 12 C1.34 12 0.68 12 0 12 C0 8.04 0 4.08 0 0 Z " fill="#212636" transform="translate(303,110)"/>
<path d="M0 0 C2.01136276 2.55991624 3.62845496 5.04590299 5 8 C2 8 2 8 -0.1875 6.125 C-2 4 -2 4 -2 2 C-1.34 2 -0.68 2 0 2 C0 1.34 0 0.68 0 0 Z " fill="#3F82E1" transform="translate(889,114)"/>
<path d="M0 0 C-0.33 0.66 -0.66 1.32 -1 2 C-3.06640625 2.4140625 -3.06640625 2.4140625 -5.5625 2.625 C-6.38878906 2.69976562 -7.21507812 2.77453125 -8.06640625 2.8515625 C-9.02353516 2.92503906 -9.02353516 2.92503906 -10 3 C-10 2.34 -10 1.68 -10 1 C-6.61981469 -0.04005702 -3.5219721 -0.08004482 0 0 Z " fill="#8C74E4" transform="translate(212,37)"/>
<path d="M0 0 C1.32 0.66 2.64 1.32 4 2 C-0.75 6 -0.75 6 -3 6 C-3 5.01 -3 4.02 -3 3 C-2.01 3 -1.02 3 0 3 C0 2.01 0 1.02 0 0 Z " fill="#488BE3" transform="translate(919,127)"/>
<path d="M0 0 C0.99 0 1.98 0 3 0 C1.70700306 2.88437779 0.34058637 4.87219421 -2 7 C-2 3 -2 3 0 0 Z " fill="#2A2D39" transform="translate(460,117)"/>
<path d="M0 0 C2 1 2 1 3.0625 3.9375 C3.371875 4.948125 3.68125 5.95875 4 7 C4.33 7.66 4.66 8.32 5 9 C3.0625 8.625 3.0625 8.625 1 8 C-0.35439668 5.29120665 -0.06501451 2.99066732 0 0 Z " fill="#232731" transform="translate(703,104)"/>
<path d="M0 0 C0.33 0.66 0.66 1.32 1 2 C-0.61594832 4.04119788 -2.2856382 6.04072937 -4 8 C-4.66 8 -5.32 8 -6 8 C-4.55746343 4.63408134 -2.66735273 2.48952921 0 0 Z " fill="#222734" transform="translate(700,91)"/>
<path d="M0 0 C0.33 1.32 0.66 2.64 1 4 C-1.31 4.66 -3.62 5.32 -6 6 C-5.67 5.34 -5.34 4.68 -5 4 C-4.34 4 -3.68 4 -3 4 C-2.67 3.01 -2.34 2.02 -2 1 C-1.34 0.67 -0.68 0.34 0 0 Z " fill="#854DED" transform="translate(63,75)"/>
<path d="M0 0 C0.66 0.33 1.32 0.66 2 1 C-0.31 3.31 -2.62 5.62 -5 8 C-5.33 6.68 -5.66 5.36 -6 4 C-5.01 3.67 -4.02 3.34 -3 3 C-1.33289654 1.50014391 -1.33289654 1.50014391 0 0 Z " fill="#9674D5" transform="translate(147,64)"/>
<path d="M0 0 C2.97 0.33 5.94 0.66 9 1 C9 1.33 9 1.66 9 2 C6.69 2 4.38 2 2 2 C1.67 2.99 1.34 3.98 1 5 C0.01 4.67 -0.98 4.34 -2 4 C-1.34 2.68 -0.68 1.36 0 0 Z " fill="#1D2634" transform="translate(271,132)"/>
<path d="M0 0 C0.99 0.33 1.98 0.66 3 1 C-0.465 3.97 -0.465 3.97 -4 7 C-4 5.68 -4 4.36 -4 3 C-2.68 2.67 -1.36 2.34 0 2 C0 1.34 0 0.68 0 0 Z " fill="#5D9EDD" transform="translate(183,121)"/>
<path d="M0 0 C0.99 0.33 1.98 0.66 3 1 C3 3.31 3 5.62 3 8 C2.01 8.495 2.01 8.495 1 9 C0.67 6.03 0.34 3.06 0 0 Z " fill="#2665EB" transform="translate(855,112)"/>
<path d="M0 0 C0.66 0.33 1.32 0.66 2 1 C-0.31 3.31 -2.62 5.62 -5 8 C-5 5 -5 5 -4 2 C-2.0625 0.75 -2.0625 0.75 0 0 Z " fill="#8A68D1" transform="translate(139,72)"/>
<path d="M0 0 C0.66 0.33 1.32 0.66 2 1 C1.67 1.99 1.34 2.98 1 4 C-2.3 4 -5.6 4 -9 4 C-9 3.67 -9 3.34 -9 3 C-4.545 2.505 -4.545 2.505 0 2 C0 1.34 0 0.68 0 0 Z " fill="#8274B9" transform="translate(235,37)"/>
<path d="M0 0 C0.33 0 0.66 0 1 0 C1 1.65 1 3.3 1 5 C-1.64 5.33 -4.28 5.66 -7 6 C-7 5.34 -7 4.68 -7 4 C-5.35 4 -3.7 4 -2 4 C-1.34 2.68 -0.68 1.36 0 0 Z " fill="#825FF1" transform="translate(220,29)"/>
<path d="M0 0 C0.33 0.66 0.66 1.32 1 2 C-1.48387097 8.74193548 -1.48387097 8.74193548 -4 10 C-3.52449439 8.51965236 -3.04448784 7.04074979 -2.5625 5.5625 C-2.29566406 4.73878906 -2.02882813 3.91507812 -1.75390625 3.06640625 C-1 1 -1 1 0 0 Z " fill="#437CCF" transform="translate(881,93)"/>
<path d="M0 0 C2.0625 1.75 2.0625 1.75 4 4 C3.75 6.25 3.75 6.25 3 8 C2.67 7.01 2.34 6.02 2 5 C1.34 5 0.68 5 0 5 C0 3.35 0 1.7 0 0 Z " fill="#4681E5" transform="translate(920,91)"/>
<path d="M0 0 C-1.65 1.32 -3.3 2.64 -5 4 C-5.99 3.34 -6.98 2.68 -8 2 C-5.44123378 -0.55876622 -3.37797483 -1.68898741 0 0 Z " fill="#6D34DF" transform="translate(61,81)"/>
<path d="M0 0 C0.66 0.99 1.32 1.98 2 3 C-1.625 6 -1.625 6 -5 6 C-5 5.34 -5 4.68 -5 4 C-3.35 3.34 -1.7 2.68 0 2 C0 1.34 0 0.68 0 0 Z " fill="#7E4DDE" transform="translate(69,65)"/>
<path d="M0 0 C2.97 0 5.94 0 9 0 C9 0.33 9 0.66 9 1 C6.03 1 3.06 1 0 1 C0 0.67 0 0.34 0 0 Z " fill="#000000" transform="translate(275,137)"/>
<path d="M0 0 C1.65 0 3.3 0 5 0 C5 0.33 5 0.66 5 1 C3.35 1 1.7 1 0 1 C0 0.67 0 0.34 0 0 Z " fill="#000000" transform="translate(397,137)"/>
<path d="M0 0 C4 1 4 1 4 1 Z " fill="#200000" transform="translate(546,137)"/>
<path d="M0 0 C4 1 4 1 4 1 Z " fill="#222222" transform="translate(389,115)"/>
<path d="M0 0 C2 1 2 1 2 1 Z " fill="#000000" transform="translate(543,137)"/>
<path d="M0 0 C2 1 2 1 2 1 Z " fill="#000000" transform="translate(486,137)"/>
<path d="M0 0 C2 1 2 1 2 1 Z " fill="#000000" transform="translate(483,137)"/>
<path d="M0 0 C2 1 2 1 2 1 Z " fill="#000000" transform="translate(479,137)"/>
<path d="M0 0 C2 1 2 1 2 1 Z " fill="#2A2A2A" transform="translate(391,136)"/>
<path d="M0 0 C2 1 2 1 2 1 Z " fill="#2A2A2A" transform="translate(469,135)"/>
<path d="M0 0 C2 1 2 1 2 1 Z " fill="#2A2A2A" transform="translate(266,135)"/>
<path d="M0 0 C2 1 2 1 2 1 Z " fill="#000000" transform="translate(263,134)"/>
<path d="M0 0 C2 1 2 1 2 1 Z " fill="#000000" transform="translate(261,133)"/>
<path d="" fill="#000000" transform="translate(0,0)"/>
<path d="" fill="#000000" transform="translate(0,0)"/>
<path d="" fill="#000000" transform="translate(0,0)"/>
<path d="" fill="#000000" transform="translate(0,0)"/>
<path d="" fill="#FFFFFF" transform="translate(0,0)"/>
<path d="" fill="#FFFFFF" transform="translate(0,0)"/>
<path d="" fill="#FFFFFF" transform="translate(0,0)"/>
<path d="" fill="#FFFFFF" transform="translate(0,0)"/>
<path d="" fill="#FFFFFF" transform="translate(0,0)"/>
<path d="" fill="#FFFFFF" transform="translate(0,0)"/>
<path d="" fill="#FFFFFF" transform="translate(0,0)"/>
<path d="" fill="#FFFFFF" transform="translate(0,0)"/>
<path d="" fill="#FFFFFF" transform="translate(0,0)"/>
<path d="" fill="#FFFFFF" transform="translate(0,0)"/>
<path d="" fill="#FFFFFF" transform="translate(0,0)"/>
<path d="" fill="#FFFFFF" transform="translate(0,0)"/>
<path d="" fill="#FFFFFF" transform="translate(0,0)"/>
<path d="" fill="#FFFFFF" transform="translate(0,0)"/>
<path d="" fill="#FFFFFF" transform="translate(0,0)"/>
<path d="" fill="#FFFFFF" transform="translate(0,0)"/>
<path d="" fill="#FFFFFF" transform="translate(0,0)"/>
<path d="" fill="#FFFFFF" transform="translate(0,0)"/>
<path d="" fill="#FFFFFF" transform="translate(0,0)"/>
<path d="" fill="#FFFFFF" transform="translate(0,0)"/>
<path d="" fill="#FFFFFF" transform="translate(0,0)"/>
<path d="" fill="#FFFFFF" transform="translate(0,0)"/>
<path d="" fill="#FFFFFF" transform="translate(0,0)"/>
<path d="" fill="#FFFFFF" transform="translate(0,0)"/>
<path d="" fill="#FFFFFF" transform="translate(0,0)"/>
<path d="" fill="#FFFFFF" transform="translate(0,0)"/>
<path d="" fill="#FFFFFF" transform="translate(0,0)"/>
<path d="" fill="#FFFFFF" transform="translate(0,0)"/>
<path d="" fill="#FFFFFF" transform="translate(0,0)"/>
<path d="" fill="#FFFFFF" transform="translate(0,0)"/>
<path d="" fill="#FFFFFF" transform="translate(0,0)"/>
<path d="" fill="#FFFFFF" transform="translate(0,0)"/>
<path d="" fill="#FFFFFF" transform="translate(0,0)"/>
<path d="" fill="#000000" transform="translate(0,0)"/>
<path d="" fill="#000000" transform="translate(0,0)"/>
<path d="" fill="#555555" transform="translate(0,0)"/>
<path d="" fill="#000000" transform="translate(0,0)"/>
<path d="" fill="#000000" transform="translate(0,0)"/>
<path d="" fill="#000000" transform="translate(0,0)"/>
<path d="" fill="#000000" transform="translate(0,0)"/>
<path d="" fill="#000000" transform="translate(0,0)"/>
<path d="" fill="#000000" transform="translate(0,0)"/>
<path d="" fill="#000000" transform="translate(0,0)"/>
<path d="" fill="#000000" transform="translate(0,0)"/>
<path d="" fill="#000000" transform="translate(0,0)"/>
<path d="" fill="#000000" transform="translate(0,0)"/>
<path d="" fill="#000000" transform="translate(0,0)"/>
<path d="" fill="#000000" transform="translate(0,0)"/>
<path d="" fill="#000000" transform="translate(0,0)"/>
<path d="" fill="#FFFFFF" transform="translate(0,0)"/>
<path d="" fill="#FFFFFF" transform="translate(0,0)"/>
<path d="" fill="#000000" transform="translate(0,0)"/>
<path d="" fill="#000000" transform="translate(0,0)"/>
<path d="" fill="#000000" transform="translate(0,0)"/>
<path d="" fill="#000000" transform="translate(0,0)"/>
<path d="" fill="#000000" transform="translate(0,0)"/>
<path d="" fill="#000000" transform="translate(0,0)"/>
<path d="" fill="#FFFFFF" transform="translate(0,0)"/>
<path d="" fill="#FFFFFF" transform="translate(0,0)"/>
<path d="" fill="#000000" transform="translate(0,0)"/>
<path d="" fill="#FFFFFF" transform="translate(0,0)"/>
<path d="" fill="#000000" transform="translate(0,0)"/>
<path d="" fill="#000000" transform="translate(0,0)"/>
<path d="" fill="#FFFFFF" transform="translate(0,0)"/>
<path d="" fill="#000000" transform="translate(0,0)"/>
<path d="" fill="#000000" transform="translate(0,0)"/>
<path d="" fill="#000000" transform="translate(0,0)"/>
<path d="" fill="#000000" transform="translate(0,0)"/>
<path d="" fill="#555555" transform="translate(0,0)"/>
<path d="" fill="#000000" transform="translate(0,0)"/>
<path d="" fill="#FFFFFF" transform="translate(0,0)"/>
<path d="" fill="#000000" transform="translate(0,0)"/>
<path d="" fill="#000000" transform="translate(0,0)"/>
<path d="" fill="#FFFFFF" transform="translate(0,0)"/>
<path d="" fill="#FFFFFF" transform="translate(0,0)"/>
<path d="" fill="#FFFFFF" transform="translate(0,0)"/>
<path d="" fill="#000000" transform="translate(0,0)"/>
<path d="" fill="#010000" transform="translate(0,0)"/>
<path d="" fill="#000000" transform="translate(0,0)"/>
<path d="" fill="#000000" transform="translate(0,0)"/>
<path d="" fill="#000000" transform="translate(0,0)"/>
<path d="" fill="#FFFFFF" transform="translate(0,0)"/>
<path d="" fill="#FFFFFF" transform="translate(0,0)"/>
<path d="" fill="#FFFFFF" transform="translate(0,0)"/>
<path d="" fill="#FFFFFF" transform="translate(0,0)"/>
<path d="" fill="#FFFFFF" transform="translate(0,0)"/>
<path d="" fill="#FFFFFF" transform="translate(0,0)"/>
<path d="" fill="#FFFFFF" transform="translate(0,0)"/>
<path d="" fill="#FFFFFF" transform="translate(0,0)"/>
<path d="" fill="#FFFFFF" transform="translate(0,0)"/>
<path d="" fill="#FFFFFF" transform="translate(0,0)"/>
<path d="" fill="#FFFFFF" transform="translate(0,0)"/>
<path d="" fill="#FFFFFF" transform="translate(0,0)"/>
<path d="" fill="#FFFFFF" transform="translate(0,0)"/>
<path d="" fill="#FFFFFF" transform="translate(0,0)"/>
<path d="" fill="#FFFFFF" transform="translate(0,0)"/>
<path d="" fill="#FFFFFF" transform="translate(0,0)"/>
<path d="" fill="#FFFFFF" transform="translate(0,0)"/>
<path d="" fill="#FFFFFF" transform="translate(0,0)"/>
<path d="" fill="#FFFFFF" transform="translate(0,0)"/>
<path d="" fill="#FFFFFF" transform="translate(0,0)"/>
<path d="" fill="#FFFFFF" transform="translate(0,0)"/>
<path d="" fill="#FFFFFF" transform="translate(0,0)"/>
<path d="" fill="#FFFFFF" transform="translate(0,0)"/>
<path d="" fill="#FFFFFF" transform="translate(0,0)"/>
<path d="" fill="#FFFFFF" transform="translate(0,0)"/>
<path d="" fill="#FFFFFF" transform="translate(0,0)"/>
<path d="" fill="#FFFFFF" transform="translate(0,0)"/>
<path d="" fill="#FFFFFF" transform="translate(0,0)"/>
<path d="" fill="#FFFFFF" transform="translate(0,0)"/>
<path d="" fill="#FFFFFF" transform="translate(0,0)"/>
</svg>
